<svg height="512pt" viewBox="0 -26 512 512" width="512pt" xmlns="http://www.w3.org/2000/svg"><path d="m503.464844 25.601562v298.664063h-494.929688v-298.664063c.027344-9.414062 7.652344-17.039062 17.066406-17.066406h460.796876c9.414062.027344 17.039062 7.652344 17.066406 17.066406zm0 0" fill="#00838f"/><path d="m477.867188 25.601562v298.664063h-469.332032v-298.664063c.027344-9.414062 7.652344-17.039062 17.066406-17.066406h435.199219c9.414063.027344 17.039063 7.652344 17.066407 17.066406zm0 0" fill="#00bcd4"/><path d="m503.464844 174.933594v149.332031h-494.929688v-58.539063c68.519532-65.789062 223.828125-164.949218 494.929688-90.792968zm0 0" fill="#00838f"/><path d="m503.464844 324.265625v25.601563c-.027344 9.414062-7.652344 17.039062-17.066406 17.066406h-460.796876c-9.414062-.027344-17.039062-7.652344-17.066406-17.066406v-25.601563zm0 0" fill="#283593"/><path d="m366.933594 435.371094v16.894531h-221.867188v-16.894531c.027344-9.414063 7.652344-17.039063 17.066406-17.066406h187.734376c9.414062.027343 17.039062 7.652343 17.066406 17.066406zm0 0" fill="#283593"/><path d="m477.867188 324.265625v25.601563c-.027344 9.414062-7.652344 17.039062-17.066407 17.066406h-435.199219c-9.414062-.027344-17.039062-7.652344-17.066406-17.066406v-25.601563zm0 0" fill="#3f51b5"/><path d="m341.332031 435.371094v16.894531h-196.265625v-16.894531c.027344-9.414063 7.652344-17.039063 17.066406-17.066406h162.132813c9.414063.027343 17.039063 7.652343 17.066406 17.066406zm0 0" fill="#3f51b5"/><path d="m315.734375 366.933594h-119.46875l-8.53125 51.199218h136.53125zm0 0" fill="#283593"/><path d="m221.867188 196.265625h68.265624c9.425782 0 17.066407 7.640625 17.066407 17.066406v59.734375c0 9.425782-7.640625 17.066406-17.066407 17.066406h-68.265624c-9.425782 0-17.066407-7.640624-17.066407-17.066406v-59.734375c0-9.425781 7.640625-17.066406 17.066407-17.066406zm0 0" fill="#fec108"/><path d="m341.332031 264.535156c-4.710937 0-8.53125-3.824218-8.53125-8.535156v-25.601562c0-4.710938 3.820313-8.53125 8.53125-8.53125h68.269531c4.710938 0 8.53125 3.820312 8.53125 8.53125 0 4.714843-3.820312 8.535156-8.53125 8.535156h-59.734374v17.066406c0 4.710938-3.820313 8.535156-8.535157 8.535156zm0 0"/><path d="m426.667969 256c-14.140625 0-25.601563-11.460938-25.601563-25.601562 0-14.136719 11.460938-25.597657 25.601563-25.597657 14.136719 0 25.597656 11.460938 25.597656 25.597657 0 14.140624-11.460937 25.601562-25.597656 25.601562zm0-34.132812c-4.714844 0-8.535157 3.820312-8.535157 8.53125 0 4.714843 3.820313 8.535156 8.535157 8.535156 4.710937 0 8.53125-3.820313 8.53125-8.535156 0-4.710938-3.820313-8.53125-8.53125-8.53125zm0 0"/><path d="m375.464844 256c-4.710938 0-8.53125-3.820312-8.53125-8.535156v-17.066406c0-4.710938 3.820312-8.53125 8.53125-8.53125 4.714844 0 8.535156 3.820312 8.535156 8.53125v17.066406c0 4.714844-3.820312 8.535156-8.535156 8.535156zm0 0"/><path d="m486.398438 375.464844h-460.796876c-14.140624 0-25.601562-11.460938-25.601562-25.597656v-25.601563c0-4.710937 3.820312-8.53125 8.535156-8.53125 4.710938 0 8.53125 3.820313 8.53125 8.53125v25.601563c0 4.710937 3.820313 8.53125 8.535156 8.53125h460.796876c4.714843 0 8.535156-3.820313 8.535156-8.53125v-25.601563c0-4.710937 3.820312-8.53125 8.53125-8.53125 4.714844 0 8.535156 3.820313 8.535156 8.53125v25.601563c0 14.136718-11.460938 25.597656-25.601562 25.597656zm0 0"/><path d="m366.933594 460.800781h-221.867188c-4.710937 0-8.53125-3.820312-8.53125-8.535156v-16.894531c0-14.140625 11.460938-25.601563 25.597656-25.601563h187.734376c14.136718 0 25.597656 11.460938 25.597656 25.601563v16.894531c0 4.714844-3.820313 8.535156-8.53125 8.535156zm-213.332032-17.066406h204.796876v-8.363281c0-4.714844-3.820313-8.535156-8.53125-8.535156h-187.734376c-4.710937 0-8.53125 3.820312-8.53125 8.535156zm0 0"/><path d="m503.464844 332.800781h-494.929688c-4.714844 0-8.535156-3.820312-8.535156-8.535156v-298.664063c0-14.140624 11.460938-25.601562 25.601562-25.601562h460.796876c14.140624 0 25.601562 11.460938 25.601562 25.601562v298.664063c0 4.714844-3.820312 8.535156-8.535156 8.535156zm-486.398438-17.066406h477.867188v-290.132813c0-4.714843-3.820313-8.535156-8.535156-8.535156h-460.796876c-4.714843 0-8.535156 3.820313-8.535156 8.535156zm0 0"/><path d="m324.265625 426.667969h-136.53125c-2.511719-.003907-4.890625-1.105469-6.511719-3.023438-1.621094-1.914062-2.316406-4.445312-1.902344-6.917969l8.53125-51.203124c.6875-4.109376 4.246094-7.121094 8.414063-7.125h119.46875c4.167969.003906 7.726563 3.015624 8.414063 7.125l8.53125 51.203124c.414062 2.472657-.28125 5.003907-1.902344 6.917969-1.621094 1.917969-4 3.019531-6.511719 3.023438zm-126.453125-17.066407h116.375l-5.683594-34.136718h-105.007812zm0 0"/><path d="m290.132812 298.667969h-68.265624c-14.140626 0-25.601563-11.460938-25.601563-25.601563v-59.734375c0-14.136719 11.460937-25.597656 25.601563-25.597656h68.265624c14.140626 0 25.601563 11.460937 25.601563 25.597656v59.734375c0 14.140625-11.460937 25.601563-25.601563 25.601563zm-68.265624-93.867188c-4.714844 0-8.535157 3.820313-8.535157 8.53125v59.734375c0 4.714844 3.820313 8.535156 8.535157 8.535156h68.265624c4.714844 0 8.535157-3.820312 8.535157-8.535156v-59.734375c0-4.710937-3.820313-8.53125-8.535157-8.53125zm0 0"/><path d="m256 264.535156c-4.710938 0-8.535156-3.824218-8.535156-8.535156v-25.601562c0-4.710938 3.824218-8.53125 8.535156-8.53125s8.535156 3.820312 8.535156 8.53125v25.601562c0 4.710938-3.824218 8.535156-8.535156 8.535156zm0 0"/><path d="m298.667969 204.800781h-85.335938v-17.066406c0-23.566406 19.105469-42.667969 42.667969-42.667969s42.667969 19.101563 42.667969 42.667969zm-68.269531-17.066406h51.203124c0-14.140625-11.464843-25.601563-25.601562-25.601563s-25.601562 11.460938-25.601562 25.601563zm0 0"/><path d="m384.265625 136.535156h-94.398437c-9.273438-.011718-16.792969-7.527344-16.800782-16.804687v-51.726563c.007813-9.277344 7.527344-16.792968 16.800782-16.804687h94.398437c9.273437.011719 16.792969 7.527343 16.800781 16.804687v51.726563c-.007812 9.277343-7.527344 16.792969-16.800781 16.804687zm-.265625-68.53125-94.132812.261719.265624 51.464844 93.867188-.265625zm0 0"/><path d="m461.066406 170.667969h-94.398437c-9.273438-.011719-16.792969-7.527344-16.800781-16.804688v-51.726562c.007812-9.277344 7.527343-16.792969 16.800781-16.804688h94.398437c9.273438.011719 16.789063 7.527344 16.800782 16.804688v51.726562c-.011719 9.277344-7.527344 16.792969-16.800782 16.804688zm-.265625-68.53125-94.132812.261719.265625 51.464843 93.867187-.261719zm0 0"/><path d="m503.464844 136.535156h-59.996094c-9.277344-.011718-16.792969-7.527344-16.800781-16.804687v-51.726563c.007812-9.277344 7.523437-16.792968 16.800781-16.804687h59.996094v17.066406h-59.996094l.265625 51.464844 59.730469-.265625zm0 0"/><path d="m307.464844 170.667969h-102.929688c-9.273437-.011719-16.792968-7.527344-16.800781-16.804688v-51.726562c.007813-9.277344 7.527344-16.792969 16.800781-16.804688h102.929688c9.273437.011719 16.792968 7.527344 16.800781 16.804688v51.726562c-.007813 9.277344-7.527344 16.792969-16.800781 16.804688zm-102.664063-68.269531v51.464843l102.664063-.261719-.265625-51.464843zm0 0"/><path d="m222.132812 136.535156h-94.398437c-9.273437-.011718-16.792969-7.527344-16.800781-16.804687v-51.726563c.007812-9.277344 7.527344-16.792968 16.800781-16.804687h94.398437c9.273438.011719 16.792969 7.527343 16.800782 16.804687v51.726563c-.007813 9.277343-7.527344 16.792969-16.800782 16.804687zm-94.132812-68.269531v51.464844l94.132812-.265625-.265624-51.460938zm0 0"/><path d="m145.332031 170.667969h-94.398437c-9.273438-.011719-16.789063-7.527344-16.800782-16.804688v-51.726562c.011719-9.277344 7.527344-16.792969 16.800782-16.804688h94.398437c9.273438.011719 16.792969 7.527344 16.800781 16.804688v51.726562c-.007812 9.277344-7.527343 16.792969-16.800781 16.804688zm-94.132812-68.269531v51.464843l94.132812-.261719-.265625-51.464843zm0 0"/><path d="m68.53125 136.535156h-59.996094v-17.070312h59.996094l-.265625-51.460938-59.730469.261719v-17.066406h59.996094c9.277344.011719 16.792969 7.527343 16.800781 16.804687v51.726563c-.007812 9.277343-7.523437 16.792969-16.800781 16.804687zm0 0"/></svg>