<svg height="472pt" viewBox="-4 0 472 472" width="472pt" xmlns="http://www.w3.org/2000/svg"><path d="m293.601562 456-21.601562-72h-80l-21.601562 72h-26.398438v16h176v-16zm0 0" fill="#e0e0de"/><path d="m279.199219 408-7.199219-24h-80l-7.199219 24zm0 0" fill="#d6d6d4"/><path d="m400 64h40c13.253906 0 24 10.746094 24 24v248h-464v-248c0-13.253906 10.746094-24 24-24h24" fill="#348fd9"/><path d="m0 336v24c0 13.253906 10.746094 24 24 24h416c13.253906 0 24-10.746094 24-24v-24zm0 0" fill="#e0e0de"/><path d="m336 0h-264c-13.253906 0-24 10.746094-24 24v312h368v-256zm0 0" fill="#60d1e0"/><path d="m104 336h312v-256l-28-28zm0 0" fill="#5ac6d4"/><path d="m72 24h16v16h-16zm0 0" fill="#419bc2"/><path d="m104 24h16v16h-16zm0 0" fill="#419bc2"/><path d="m136 24h16v16h-16zm0 0" fill="#419bc2"/><path d="m360 48h-96l-160 160 96 96 160-160zm0 0" fill="#ffb531"/><path d="m310.855469 48-133.398438 233.457031 22.542969 22.542969 160-160v-96zm0 0" fill="#ffa912"/><path d="m320 104c-8.835938 0-16-7.164062-16-16s7.164062-16 16-16 16 7.164062 16 16-7.164062 16-16 16zm0-16" fill="#60d1e0"/><path d="m146.34375 205.652344 11.3125-11.3125 55.996094 55.996094-11.3125 11.3125zm0 0" fill="#f98500"/><path d="m170.34375 181.65625 11.3125-11.316406 55.996094 56-11.3125 11.3125zm0 0" fill="#f98500"/><path d="m272 184-40-8-8-40 24-24 40 8 8 40zm0 0" fill="#f98500"/><g fill="#419bc2"><path d="m72 72h80v16h-80zm0 0"/><path d="m72 104h80v16h-80zm0 0"/><path d="m72 136h48v16h-48zm0 0"/><path d="m376 232h16v16h-16zm0 0"/><path d="m312 264h80v16h-80zm0 0"/><path d="m312 296h80v16h-80zm0 0"/><path d="m312 232h48v16h-48zm0 0"/><path d="m72 264h56v16h-56zm0 0"/><path d="m72 296h80v16h-80zm0 0"/></g><path d="m416 80h-48c-17.671875 0-32-14.328125-32-32v-48zm0 0" fill="#9fe4ed"/><path d="m48 320h368v16h-368zm0 0" fill="#5ac6d4"/><path d="m0 320h48v16h-48zm0 0" fill="#3086cd"/><path d="m416 64h16v272h-16zm0 0" fill="#3086cd"/><path d="m416 320h48v16h-48zm0 0" fill="#3086cd"/><path d="m459.03125 435.03125-75.03125-75.03125-24 24 75.03125 75.03125c6.628906 6.628906 17.375 6.628906 24 0 6.628906-6.625 6.628906-17.371094 0-24zm0 0" fill="#f35244"/><path d="m407.902344 383.902344-23.902344-23.902344-24 24 23.902344 23.902344c9.09375-6.828125 17.171875-14.90625 24-24zm0 0" fill="#de4132"/><path d="m416 304c0 66.273438-53.726562 120-120 120s-120-53.726562-120-120 53.726562-120 120-120 120 53.726562 120 120zm0 0" fill="#f35244"/><path d="m384 304c0 48.601562-39.398438 88-88 88s-88-39.398438-88-88 39.398438-88 88-88 88 39.398438 88 88zm0 0" fill="#48add9"/><path d="m368 304c0 39.765625-32.234375 72-72 72s-72-32.234375-72-72 32.234375-72 72-72 72 32.234375 72 72zm0 0" fill="#4db7e5"/><path d="m208 304c42.558594-53.335938 133.441406-53.335938 176 0-42.558594 53.335938-133.441406 53.335938-176 0zm0 0" fill="#d6d6d4"/><path d="m336 304c0 22.089844-17.910156 40-40 40s-40-17.910156-40-40 17.910156-40 40-40 40 17.910156 40 40zm0 0" fill="#348fd9"/><path d="m320.382812 272.496094c-11.011718 24.871094-30.0625 45.324218-54.09375 58.0625 10.046876 11.355468 25.664063 16.023437 40.292969 12.054687 14.632813-3.972656 25.742188-15.898437 28.671875-30.773437 2.925782-14.875-2.835937-30.125-14.871094-39.34375zm0 0" fill="#3086cd"/><path d="m296 320c-8.835938 0-16-7.164062-16-16s7.164062-16 16-16 16 7.164062 16 16-7.164062 16-16 16zm0-16" fill="#2a71ad"/></svg>