<svg height="480pt" viewBox="0 0 480 480.00192" width="480pt" xmlns="http://www.w3.org/2000/svg"><path d="m301.601562 464-21.601562-72h-80l-21.597656 72h-26.402344v16h176v-16zm0 0" fill="#e0e0de"/><path d="m287.199219 416-7.199219-24h-80l-7.199219 24zm0 0" fill="#d6d6d4"/><path d="m408 72h40c13.253906 0 24 10.746094 24 24v248h-464v-248c0-13.253906 10.746094-24 24-24h24" fill="#348fd9"/><path d="m8 344v24c0 13.253906 10.746094 24 24 24h416c13.253906 0 24-10.746094 24-24v-24zm0 0" fill="#e0e0de"/><path d="m344 8h-264c-13.253906 0-24 10.746094-24 24v312h368v-256zm0 0" fill="#60d1e0"/><path d="m112 344h312v-256l-28-28zm0 0" fill="#5ac6d4"/><path d="m80 32h16v16h-16zm0 0" fill="#419bc2"/><path d="m112 32h16v16h-16zm0 0" fill="#419bc2"/><path d="m144 32h16v16h-16zm0 0" fill="#419bc2"/><path d="m368 56h-96l-160 160 96 96 160-160zm0 0" fill="#ffb531"/><path d="m318.855469 56-133.398438 233.457031 22.542969 22.542969 160-160v-96zm0 0" fill="#ffa912"/><path d="m328 112c-8.835938 0-16-7.164062-16-16s7.164062-16 16-16 16 7.164062 16 16-7.164062 16-16 16zm0-16" fill="#60d1e0"/><path d="m154.34375 213.652344 11.3125-11.3125 55.996094 55.996094-11.3125 11.3125zm0 0" fill="#f98500"/><path d="m178.34375 189.65625 11.3125-11.316406 55.996094 56-11.3125 11.3125zm0 0" fill="#f98500"/><path d="m280 192-40-8-8-40 24-24 40 8 8 40zm0 0" fill="#f98500"/><g fill="#419bc2"><path d="m80 80h80v16h-80zm0 0"/><path d="m80 112h80v16h-80zm0 0"/><path d="m80 144h48v16h-48zm0 0"/><path d="m384 240h16v16h-16zm0 0"/><path d="m320 272h80v16h-80zm0 0"/><path d="m320 304h80v16h-80zm0 0"/><path d="m320 240h48v16h-48zm0 0"/><path d="m80 272h56v16h-56zm0 0"/><path d="m80 304h80v16h-80zm0 0"/></g><path d="m424 88h-48c-17.671875 0-32-14.328125-32-32v-48zm0 0" fill="#9fe4ed"/><path d="m56 328h368v16h-368zm0 0" fill="#5ac6d4"/><path d="m8 328h48v16h-48zm0 0" fill="#3086cd"/><path d="m424 72h16v272h-16zm0 0" fill="#3086cd"/><path d="m424 328h48v16h-48zm0 0" fill="#3086cd"/><path d="m467.03125 443.03125-75.03125-75.03125-24 24 75.03125 75.03125c6.628906 6.628906 17.375 6.628906 24 0 6.628906-6.625 6.628906-17.371094 0-24zm0 0" fill="#f35244"/><path d="m415.90625 391.902344-23.90625-23.902344-24 24 23.90625 23.902344c9.089844-6.828125 17.171875-14.90625 24-24zm0 0" fill="#de4132"/><path d="m424 312c0 66.273438-53.726562 120-120 120s-120-53.726562-120-120 53.726562-120 120-120 120 53.726562 120 120zm0 0" fill="#f35244"/><path d="m392 312c0 48.601562-39.398438 88-88 88s-88-39.398438-88-88 39.398438-88 88-88 88 39.398438 88 88zm0 0" fill="#48add9"/><path d="m376 312c0 39.765625-32.234375 72-72 72-39.761719 0-72-32.234375-72-72s32.238281-72 72-72c39.765625 0 72 32.234375 72 72zm0 0" fill="#4db7e5"/><path d="m216 312c42.5625-53.335938 133.441406-53.335938 176 0-42.558594 53.335938-133.4375 53.335938-176 0zm0 0" fill="#d6d6d4"/><path d="m344 312c0 22.089844-17.90625 40-40 40-22.089844 0-40-17.910156-40-40s17.910156-40 40-40c22.09375 0 40 17.910156 40 40zm0 0" fill="#348fd9"/><path d="m328.386719 280.496094c-11.011719 24.871094-30.066407 45.324218-54.097657 58.0625 10.046876 11.355468 25.664063 16.023437 40.296876 12.054687 14.628906-3.972656 25.742187-15.898437 28.667968-30.773437 2.929688-14.875-2.835937-30.125-14.867187-39.34375zm0 0" fill="#3086cd"/><path d="m304 328c-8.835938 0-16-7.164062-16-16s7.164062-16 16-16 16 7.164062 16 16-7.164062 16-16 16zm0-16" fill="#2a71ad"/><path d="m187.535156 405.695312-17.484375 58.304688h-18.050781v16h176v-16h-18.039062l-5.472657-18.296875-15.328125 4.59375 4.097656 13.703125h-106.503906l16.109375-53.695312zm0 0"/><path d="m440 336h-10.335938c11.792969-60.675781-21.273437-121.148438-78.71875-143.964844-57.445312-22.8125-122.992187-1.507812-156.042968 50.722656-33.050782 52.230469-24.238282 120.589844 20.972656 162.734376 45.214844 42.144531 114.023438 46.136718 163.804688 9.5l57.699218 57.695312c7.140625 7.140625 17.878906 9.277344 27.210938 5.414062 9.328125-3.867187 15.410156-12.96875 15.410156-23.070312.019531-6.625-2.613281-12.984375-7.3125-17.65625l-59.03125-59.03125-1.023438 1.023438c5.367188-8.578126 9.691407-17.765626 12.878907-27.367188h38.488281v16c0 8.835938-7.164062 16-16 16v16c17.675781 0 32-14.328125 32-32v-272c0-17.671875-14.324219-32-32-32v16c8.835938 0 16 7.164062 16 16v240zm21.378906 112.6875c2.566406 2.566406 3.332032 6.425781 1.945313 9.777344-1.390625 3.351562-4.664063 5.539062-8.292969 5.535156-2.375-.007812-4.652344-.953125-6.34375-2.625l-56.6875-56.679688c4.355469-4.117187 8.414062-8.539062 12.152344-13.222656zm-157.378906-24.6875c-61.855469 0-112-50.144531-112-112s50.144531-112 112-112 112 50.144531 112 112c-.066406 61.828125-50.171875 111.933594-112 112zm0 0"/><path d="m32 400h136v-16h-136c-8.835938 0-16-7.164062-16-16v-16h144v-16h-144v-240c0-8.835938 7.164062-16 16-16v-16c-17.671875 0-32 14.328125-32 32v272c0 17.671875 14.328125 32 32 32zm0 0"/><path d="m64 32c0-8.835938 7.164062-16 16-16h256v32h-64c-2.121094 0-4.15625.84375-5.65625 2.34375l-160 160c-3.121094 3.125-3.121094 8.1875 0 11.3125l48 48 11.3125-11.3125-42.34375-42.34375 152-152h61.488281c2.640625 12.734375 11.285157 23.394531 23.199219 28.609375v56.078125l-21.65625 21.65625 11.3125 11.3125 24-24c1.5-1.5 2.34375-3.535156 2.34375-5.65625v-56h40v128h16v-136c0-.167969-.085938-.320312-.09375-.488281-.046875-.707031-.1875-1.40625-.417969-2.078125-.085937-.257813-.152343-.496094-.261719-.746094-.390624-.871094-.933593-1.664062-1.601562-2.34375l-80-80c-.675781-.667969-1.464844-1.207031-2.328125-1.601562-.261719-.105469-.527344-.199219-.800781-.277344-.640625-.21875-1.308594-.351563-1.984375-.402344-.160157.0351562-.328125-.0625-.511719-.0625h-264c-17.671875 0-32 14.328125-32 32v288h16zm340.6875 48h-28.6875c-13.253906 0-24-10.746094-24-24v-28.6875zm0 0"/><path d="m80 32h16v16h-16zm0 0"/><path d="m112 32h16v16h-16zm0 0"/><path d="m144 32h16v16h-16zm0 0"/><path d="m344 96c0 8.835938-7.164062 16-16 16s-16-7.164062-16-16 7.164062-16 16-16 16 7.164062 16 16zm0 0"/><path d="m154.34375 213.65625 11.3125-11.3125 24.003906 24-11.316406 11.3125zm0 0"/><path d="m178.34375 189.660156 11.3125-11.316406 24.003906 24.003906-11.316406 11.3125zm0 0"/><path d="m289.199219 134.800781 6.960937 34.765625 15.679688-3.132812-8-40c-.632813-3.164063-3.105469-5.640625-6.269532-6.273438l-40-8c-2.617187-.527344-5.320312.292969-7.203124 2.183594l-24 24c-1.878907 1.886719-2.699219 4.585938-2.183594 7.199219l8 40 15.679687-3.136719-7.148437-35.796875 17.941406-17.953125zm0 0"/><path d="m80 80h80v16h-80zm0 0"/><path d="m80 112h80v16h-80zm0 0"/><path d="m80 144h48v16h-48zm0 0"/><path d="m80 272h56v16h-56zm0 0"/><path d="m80 304h80v16h-80zm0 0"/><path d="m400 312c0-53.019531-42.980469-96-96-96s-96 42.980469-96 96 42.980469 96 96 96 96-42.980469 96-96zm-128 0c0-17.671875 14.328125-32 32-32 17.675781 0 32 14.328125 32 32s-14.324219 32-32 32c-17.671875 0-32-14.328125-32-32zm-9.304688 24.328125c-13.742187-5.257813-26.109374-13.578125-36.160156-24.328125 10.050782-10.75 22.417969-19.070312 36.160156-24.328125-8.925781 14.988281-8.925781 33.667969 0 48.65625zm82.609376-48.65625c13.742187 5.257813 26.109374 13.578125 36.160156 24.328125-10.050782 10.75-22.417969 19.070312-36.160156 24.328125 8.929687-14.988281 8.929687-33.667969 0-48.65625zm-41.304688-55.671875c35.578125.042969 66.863281 23.558594 76.800781 57.71875-20.609375-15.9375-45.777343-24.859375-71.824219-25.460938-3.292968-.34375-6.609374-.34375-9.902343 0-26.0625.589844-51.25 9.515626-71.875 25.460938 9.9375-34.160156 41.222656-57.675781 76.800781-57.71875zm0 160c-35.578125-.042969-66.863281-23.558594-76.800781-57.71875 20.609375 15.9375 45.78125 24.859375 71.824219 25.460938 3.292968.34375 6.613281.34375 9.90625 0 26.0625-.589844 51.25-9.515626 71.871093-25.460938-9.9375 34.160156-41.222656 57.675781-76.800781 57.71875zm0 0"/><path d="m320 312c0 8.835938-7.164062 16-16 16s-16-7.164062-16-16 7.164062-16 16-16 16 7.164062 16 16zm0 0"/></svg>