<svg id="Layer_1" enable-background="new 0 0 256 256" height="512" viewBox="0 0 256 256" width="512" xmlns="http://www.w3.org/2000/svg"><g id="Layer_50"><g><path d="m202.7 114.5h20.5c2.7 0 4.9 2.2 4.9 4.9v37.1c0 2.7-2.2 4.9-4.9 4.9h-20.5c-2.7 0-4.9-2.2-4.9-4.9v-37.1c0-2.7 2.2-4.9 4.9-4.9z" fill="#ef4460"/><path d="m206.9 115.5c0 3.3 2.7 6 6 6s6-2.7 6-6c0-.3 0-.7-.1-1h-11.8c0 .3-.1.7-.1 1z" fill="#3a70bf"/><path d="m196.1 37.1h-2.1v2.1c0 1.5-1.3 2.8-2.8 2.8s-2.8-1.3-2.8-2.8v-2.1h-2.1c-1.5 0-2.8-1.3-2.8-2.8s1.3-2.8 2.8-2.8h2.1v-2.1c0-1.5 1.3-2.8 2.8-2.8s2.8 1.3 2.8 2.8v2.1h2.1c1.5 0 2.8 1.3 2.8 2.8.1 1.6-1.2 2.8-2.8 2.8z" fill="#70d6f9"/><circle cx="182" cy="14.3" fill="#f5c84c" r="3"/><circle cx="165" cy="89" fill="#87d147" r="3"/><circle cx="72" cy="165" fill="#70d6f9" r="3"/><circle cx="11" cy="128" fill="#fc657e" r="3"/><path d="m29.8 97.8c-4-.7-7.1-3.8-7.9-7.7 0-.1-.1-.2-.2-.1-.1 0-.1.1-.1.1-.8 4-3.9 7-7.9 7.7-.1 0-.2.1-.1.2 0 .1.1.1.1.1 4 .7 7.1 3.8 7.9 7.7 0 .1.1.2.2.1.1 0 .1-.1.1-.1.8-4 3.9-7 7.9-7.7 0-.1 0-.2 0-.3z" fill="#f5c84c"/><ellipse cx="128" cy="111.3" fill="#fc657e" rx="41.4" ry="6.9"/><path d="m128 133.3c-22.9 0-41.4-3.1-41.4-6.9v15.2c0 3.8 18.5 6.9 41.4 6.9s41.4-3.1 41.4-6.9v-15.2c0 3.9-18.5 6.9-41.4 6.9z" fill="#fc657e"/><path d="m128 118.1c-22.9 0-41.4-3.1-41.4-6.9v15.2c0 3.8 18.5 6.9 41.4 6.9s41.4-3.1 41.4-6.9v-15.2c0 3.9-18.5 6.9-41.4 6.9z" fill="#ef4460"/><path d="m128 148.6c-22.9 0-41.4-3.1-41.4-6.9v15.2c0 3.8 18.5 6.9 41.4 6.9s41.4-3.1 41.4-6.9v-15.2c0 3.8-18.5 6.9-41.4 6.9z" fill="#ef4460"/><path d="m159.3 58.8h-62.6c-4.5 0-8.1-3.6-8.1-8.1v-40.1c0-4.5 3.6-8.1 8.1-8.1h62.6c4.5 0 8.1 3.6 8.1 8.1v40.1c0 4.4-3.7 8-8.1 8.1z" fill="#3a70bf"/><path d="m140.3 69.8h-24.6c-2.9 0-5.3 2.4-5.3 5.3s2.4 5.3 5.3 5.3h24.6c2.9 0 5.3-2.4 5.3-5.3s-2.4-5.3-5.3-5.3z" fill="#edf4fc"/><path d="m122.7 58.8h10.6v11h-10.6z" fill="#c7d7e5"/><path d="m98.7 12.5h58.6v36.2h-58.6z" fill="#ef4460"/><path d="m98.7 39.4h58.6v9.3h-58.6z" fill="#3caadc"/><path d="m98.7 39.4h10.8v9.3h-10.8z" fill="#f5c84c"/><path d="m72.4 233.1h-58.8c-4.2 0-7.6-3.4-7.6-7.6v-37.7c0-4.2 3.4-7.6 7.6-7.6h58.9c4.2 0 7.6 3.4 7.6 7.6v37.7c-.1 4.2-3.5 7.6-7.7 7.6z" fill="#3a70bf"/><path d="m157.4 233.1h-58.8c-4.2 0-7.6-3.4-7.6-7.6v-37.7c0-4.2 3.4-7.6 7.6-7.6h58.9c4.2 0 7.6 3.4 7.6 7.6v37.7c-.1 4.2-3.5 7.6-7.7 7.6z" fill="#3a70bf"/><path d="m242.4 233.1h-58.9c-4.2 0-7.6-3.4-7.6-7.6v-37.7c0-4.2 3.4-7.6 7.6-7.6h58.9c4.2 0 7.6 3.4 7.6 7.6v37.7c0 4.2-3.4 7.6-7.6 7.6z" fill="#3a70bf"/><path d="m54.6 243.5h-23.2c-2.8 0-5 2.2-5 5s2.2 5 5 5h23.2c2.8 0 5-2.2 5-5s-2.2-5-5-5z" fill="#edf4fc"/><path d="m139.6 243.5h-23.2c-2.8 0-5 2.2-5 5s2.2 5 5 5h23.2c2.8 0 5-2.2 5-5s-2.2-5-5-5z" fill="#edf4fc"/><path d="m224.6 243.5h-23.2c-2.8 0-5 2.2-5 5s2.2 5 5 5h23.2c2.8 0 5-2.2 5-5s-2.2-5-5-5z" fill="#edf4fc"/><path d="m208 233.1h10v10.4h-10z" fill="#c7d7e5"/><path d="m123 233.1h10v10.4h-10z" fill="#c7d7e5"/><path d="m38 233.1h10v10.4h-10z" fill="#c7d7e5"/><path d="m15.4 189.6h55.2v34h-55.2z" fill="#edf4fc"/><path d="m100.4 189.6h55.2v34h-55.2z" fill="#edf4fc"/><path d="m185.4 189.6h55.2v34h-55.2z" fill="#edf4fc"/><g fill="#ef4460"><path d="m211.1 216.2c-1.1 0-2.1-.4-2.9-1.2l-6.5-6.5c-1.6-1.6-1.6-4.1 0-5.7s4.1-1.6 5.7 0l3.6 3.6 7.9-7.9c1.6-1.6 4.1-1.6 5.7 0s1.6 4.1 0 5.7l-10.6 10.8c-.8.8-1.8 1.2-2.9 1.2z"/><path d="m126.1 216.2c-1.1 0-2.1-.4-2.9-1.2l-6.5-6.5c-1.6-1.6-1.6-4.1 0-5.7s4.1-1.6 5.7 0l3.6 3.6 7.9-7.9c1.6-1.6 4.1-1.6 5.7 0s1.6 4.1 0 5.7l-10.6 10.8c-.8.8-1.8 1.2-2.9 1.2z"/><path d="m41.1 216.2c-1.1 0-2.1-.4-2.9-1.2l-6.5-6.5c-1.6-1.6-1.6-4.1 0-5.7s4.1-1.6 5.7 0l3.6 3.6 7.9-7.9c1.6-1.6 4.1-1.6 5.7 0s1.6 4.1 0 5.7l-10.6 10.8c-.8.8-1.8 1.2-2.9 1.2z"/><path d="m32.8 114.5h20.5c2.7 0 4.9 2.2 4.9 4.9v37.1c0 2.7-2.2 4.9-4.9 4.9h-20.5c-2.7 0-4.9-2.2-4.9-4.9v-37.1c-.1-2.7 2.1-4.9 4.9-4.9z"/></g><path d="m37 115.5c0 3.3 2.7 6 6 6s6-2.7 6-6c0-.3 0-.7-.1-1h-11.8c-.1.3-.1.7-.1 1z" fill="#3a70bf"/><path d="m159.8 48.7v-36.2c0-1.4-1.1-2.5-2.5-2.5h-58.6c-1.4 0-2.5 1.1-2.5 2.5v36.2c0 1.4 1.1 2.5 2.5 2.5h58.6c1.4 0 2.5-1.1 2.5-2.5zm-52.8-2.5h-5.8v-4.3h5.8zm47.8 0h-42.8v-4.3h42.8zm0-9.3h-53.6v-21.9h53.6z"/><path d="m242.4 235.6c5.6 0 10.1-4.5 10.1-10.1v-37.7c0-5.6-4.5-10.1-10.1-10.1h-27v-13.7h7.7c4.1 0 7.4-3.3 7.4-7.4v-37.1c0-4.1-3.3-7.4-7.4-7.4h-20.5c-4.1 0-7.4 3.3-7.4 7.4v37.1c0 4.1 3.3 7.4 7.4 7.4h7.7v13.7h-26.9c-5.6 0-10.1 4.5-10.1 10.1v16.5h-5.9v-16.5c0-5.6-4.5-10.1-10.1-10.1h-26.9v-11.4c8.4-.1 41.4-.9 41.4-9.3v-45.7c0-8.5-33.1-9.3-41.6-9.3l6.4-6.4c1-1 .9-2.6 0-3.5-1-.9-2.5-.9-3.5 0l-2.7 2.7v-11.9h9.8c4.3 0 7.8-3.5 7.8-7.8s-3.5-7.8-7.8-7.8h-4.5v-6h23.5c5.8 0 10.6-4.7 10.6-10.6v-40.1c0-5.8-4.7-10.6-10.6-10.6h-62.5c-5.8 0-10.6 4.7-10.6 10.6v40.1c0 5.8 4.7 10.6 10.6 10.6h23.5v6h-4.5c-4.3 0-7.8 3.5-7.8 7.8s3.5 7.8 7.8 7.8h9.8v11.8l-2.7-2.7c-1-1-2.5-1-3.5 0s-1 2.5 0 3.5l6.4 6.4c-8.4.1-41.5.8-41.5 9.3v45.7c0 8.5 33 9.3 41.4 9.3v11.4h-27c-5.6 0-10.1 4.5-10.1 10.1v16.5h-5.9v-16.5c0-5.6-4.5-10.1-10.1-10.1h-27v-13.6h7.7c4.1 0 7.4-3.3 7.4-7.4v-37.1c0-4.1-3.3-7.4-7.4-7.4h-20.4c-4.1 0-7.4 3.3-7.4 7.4v37.1c0 4.1 3.3 7.4 7.4 7.4h7.7v13.7h-26.9c-5.6 0-10.1 4.5-10.1 10.1v37.7c0 5.6 4.5 10.1 10.1 10.1h21.9v5.4h-4.1c-4.1 0-7.5 3.4-7.5 7.5s3.4 7.5 7.5 7.5h23.2c4.1 0 7.5-3.4 7.5-7.5s-3.4-7.5-7.5-7.5h-4.1v-5.4h21.9c5.6 0 10.1-4.5 10.1-10.1v-16.2h5.9v16.2c0 5.6 4.5 10.1 10.1 10.1h21.9v5.4h-4.1c-4.1 0-7.5 3.4-7.5 7.5s3.4 7.5 7.5 7.5h23.2c4.1 0 7.5-3.4 7.5-7.5s-3.4-7.5-7.5-7.5h-4.1v-5.4h21.9c5.6 0 10.1-4.5 10.1-10.1v-16.2h5.9v16.2c0 5.6 4.5 10.1 10.1 10.1h21.9v5.4h-4.1c-4.1 0-7.5 3.4-7.5 7.5s3.4 7.5 7.5 7.5h23.2c4.1 0 7.5-3.4 7.5-7.5s-3.4-7.5-7.5-7.5h-4.1v-5.4zm-196.2-118.6c-.8 1.7-2.9 2.5-4.7 1.7-.7-.3-1.3-.9-1.7-1.7zm-13.4 42c-1.3 0-2.4-1.1-2.4-2.4v-37.1c0-1.3 1.1-2.4 2.4-2.4h1.9c.8 4.6 5.2 7.7 9.9 6.9 3.5-.6 6.2-3.4 6.9-6.9h1.9c1.3 0 2.4 1.1 2.4 2.4v37.1c0 1.3-1.1 2.4-2.4 2.4zm21.8 87c1.4 0 2.5 1.1 2.5 2.5s-1.1 2.5-2.5 2.5h-23.2c-1.4 0-2.5-1.1-2.5-2.5s1.1-2.5 2.5-2.5zm-14.1-5v-5.4h5v5.4zm37-15.5c0 2.8-2.3 5.1-5.1 5.1h-58.8c-2.8 0-5.1-2.3-5.1-5.1v-37.7c0-2.8 2.3-5.1 5.1-5.1h58.9c2.8 0 5.1 2.3 5.1 5.1zm19.2-169.3c-3.1 0-5.6-2.5-5.6-5.6v-40c0-3.1 2.5-5.6 5.6-5.6h62.6c3.1 0 5.6 2.5 5.6 5.6v40.1c0 3.1-2.5 5.6-5.6 5.6h-62.6zm34.1 5v6h-5.6v-6zm-15.1 16.7c-1.6 0-2.8-1.3-2.8-2.8 0-1.6 1.3-2.8 2.8-2.8h24.6c1.6 0 2.8 1.3 2.8 2.8 0 1.6-1.3 2.8-2.8 2.8zm12.3 29c20.1 0 34.2 2.4 38.2 4.3-7.2 3.6-30 4.4-38.2 4.4-8.1 0-30.9-.7-38.2-4.4 4-1.9 18.1-4.3 38.2-4.3zm-38.9 9.4c9.2 3.5 29.1 4.3 38.9 4.3 9.6 0 30-.8 38.9-4.3v9.7c-4.8 4.1-32.5 4.8-38.9 4.8s-34.1-.8-38.9-4.8zm0 15.3c8.9 3.5 28.5 4.3 38.9 4.3 9.9 0 29.8-.7 38.9-4.3v9.7c-4.6 3.9-32.6 4.8-38.9 4.8-6.4 0-34.1-.8-38.9-4.8zm0 24.9v-9.7c9.1 3.5 29.1 4.3 38.9 4.3 9.9 0 29.8-.7 38.9-4.3v9.7c-2.4 2-17.2 4.8-38.9 4.8s-36.5-2.8-38.9-4.8zm50.5 89.5c1.4 0 2.5 1.1 2.5 2.5s-1.1 2.5-2.5 2.5h-23.2c-1.4 0-2.5-1.1-2.5-2.5s1.1-2.5 2.5-2.5zm-14.1-5v-5.4h5v5.4zm37-15.5c0 2.8-2.3 5.1-5.1 5.1h-58.8c-2.8 0-5.1-2.3-5.1-5.1v-37.7c0-2.8 2.3-5.1 5.1-5.1h58.9c2.8 0 5.1 2.3 5.1 5.1v37.7zm53.6-108.5c-.8 1.7-2.9 2.5-4.7 1.7-.7-.3-1.3-.9-1.7-1.7zm-13.4 42c-1.3 0-2.4-1.1-2.4-2.4v-37.1c0-1.3 1.1-2.4 2.4-2.4h1.9c.8 4.6 5.2 7.7 9.9 6.9 3.5-.6 6.2-3.4 6.9-6.9h1.9c1.3 0 2.4 1.1 2.4 2.4v37.1c0 1.3-1.1 2.4-2.4 2.4zm21.9 87c1.4 0 2.5 1.1 2.5 2.5s-1.1 2.5-2.5 2.5h-23.2c-1.4 0-2.5-1.1-2.5-2.5s1.1-2.5 2.5-2.5zm-14.1-5v-5.4h5v5.4zm-26.9-10.4c-2.8 0-5.1-2.3-5.1-5.1v-37.7c0-2.8 2.3-5.1 5.1-5.1h58.9c2.8 0 5.1 2.3 5.1 5.1v37.7c0 2.8-2.3 5.1-5.1 5.1z"/><path d="m70.6 187.1h-55.2c-1.4 0-2.5 1.1-2.5 2.5v34c0 1.4 1.1 2.5 2.5 2.5h55.2c1.4 0 2.5-1.1 2.5-2.5v-34c0-1.4-1.1-2.5-2.5-2.5zm-2.5 34.1h-50.2v-29h50.2z"/><path d="m155.6 187.1h-55.2c-1.4 0-2.5 1.1-2.5 2.5v34c0 1.4 1.1 2.5 2.5 2.5h55.2c1.4 0 2.5-1.1 2.5-2.5v-34c0-1.4-1.1-2.5-2.5-2.5zm-2.5 34.1h-50.2v-29h50.2z"/><path d="m243.1 189.6c0-1.4-1.1-2.5-2.5-2.5h-55.2c-1.4 0-2.5 1.1-2.5 2.5v34c0 1.4 1.1 2.5 2.5 2.5h55.2c1.4 0 2.5-1.1 2.5-2.5zm-5 31.6h-50.2v-29h50.2z"/><path d="m206.5 216.8c2.6 2.6 6.7 2.6 9.3 0l10.8-10.8c2.6-2.6 2.6-6.7 0-9.3s-6.7-2.6-9.3 0l-6.2 6.2-1.8-1.8c-2.6-2.6-6.7-2.6-9.3 0s-2.6 6.7 0 9.3zm-2.9-12.2c.6-.6 1.6-.6 2.2 0l3.6 3.6c1 1 2.6 1 3.5 0l7.9-7.9c.6-.6 1.6-.6 2.2 0s.6 1.6 0 2.2l-10.8 10.8c-.6.6-1.6.6-2.2 0l-6.5-6.5c-.5-.6-.5-1.6.1-2.2z"/><path d="m121.5 216.8c2.6 2.6 6.7 2.6 9.3 0l10.8-10.8c2.6-2.6 2.6-6.7 0-9.3s-6.7-2.6-9.3 0l-6.2 6.2-1.8-1.8c-2.6-2.6-6.7-2.6-9.3 0s-2.6 6.7 0 9.3zm-2.9-12.2c.6-.6 1.6-.6 2.2 0l3.6 3.6c1 1 2.6 1 3.5 0l7.9-7.9c.6-.6 1.6-.6 2.2 0s.6 1.6 0 2.2l-10.8 10.8c-.6.6-1.6.6-2.2 0l-6.5-6.5c-.5-.6-.5-1.6.1-2.2z"/><path d="m36.5 216.8c2.6 2.6 6.7 2.6 9.3 0l10.8-10.8c2.6-2.6 2.6-6.7 0-9.3s-6.7-2.6-9.3 0l-6.2 6.2-1.8-1.8c-2.6-2.6-6.7-2.6-9.3 0s-2.6 6.7 0 9.3zm-2.9-12.2c.6-.6 1.6-.6 2.2 0l3.6 3.6c1 1 2.6 1 3.5 0l7.9-7.9c.6-.6 1.6-.6 2.2 0s.6 1.6 0 2.2l-10.8 10.8c-.6.6-1.6.6-2.2 0l-6.5-6.5c-.5-.6-.5-1.6.1-2.2z"/><path d="m218.2 132.8-6.1 6.1-2.7-2.7c-1-1-2.6-1-3.5 0-1 1-1 2.6 0 3.5l4.5 4.5c1 1 2.6 1 3.5 0l7.8-7.8c1-1 1-2.5 0-3.5s-2.5-1.1-3.5-.1c0-.1 0 0 0 0z"/><path d="m48.2 132.8-6.1 6.1-2.7-2.7c-1-1-2.6-1-3.5 0-1 1-1 2.6 0 3.5l4.5 4.5c1 1 2.6 1 3.5 0l7.8-7.8c1-1 1-2.5 0-3.5s-2.4-1.1-3.5-.1c.1-.1 0 0 0 0z"/></g></g></svg>