<svg id="Capa_1" enable-background="new 0 0 510 510" height="512" viewBox="0 0 510 510" width="512" xmlns="http://www.w3.org/2000/svg" xmlns:xlink="http://www.w3.org/1999/xlink"><linearGradient id="SVGID_1_" gradientUnits="userSpaceOnUse" x1="185.107" x2="185.107" y1="78.755" y2="140.205"><stop offset="0" stop-color="#ff9100"/><stop offset="1" stop-color="#e63950"/></linearGradient><linearGradient id="SVGID_2_" gradientUnits="userSpaceOnUse" x1="141.366" x2="141.366" y1="78.755" y2="140.205"><stop offset="0" stop-color="#fdbf00"/><stop offset="1" stop-color="#ff9100"/></linearGradient><linearGradient id="SVGID_3_" gradientUnits="userSpaceOnUse" x1="66.626" x2="357.353" y1="96.749" y2="387.476"><stop offset="0" stop-color="#ffda2d"/><stop offset="1" stop-color="#fdbf00"/></linearGradient><linearGradient id="lg1"><stop offset="0" stop-color="#ff9100" stop-opacity="0"/><stop offset="1" stop-color="#ff9100"/></linearGradient><linearGradient id="SVGID_4_" gradientUnits="userSpaceOnUse" x1="213.188" x2="290.759" xlink:href="#lg1" y1="345.418" y2="224.87"/><linearGradient id="SVGID_5_" gradientUnits="userSpaceOnUse" x1="384.58" x2="263.685" xlink:href="#lg1" y1="414.703" y2="293.808"/><linearGradient id="SVGID_6_" gradientUnits="userSpaceOnUse" x1="258.725" x2="258.725" xlink:href="#lg1" y1="396.588" y2="477.421"/><linearGradient id="SVGID_7_" gradientUnits="userSpaceOnUse" x1="185.625" x2="108.344" xlink:href="#lg1" y1="448.447" y2="340.532"/><linearGradient id="SVGID_8_" gradientUnits="userSpaceOnUse" x1="452.481" x2="391.369" xlink:href="#lg1" y1="288.553" y2="189.246"/><linearGradient id="lg2"><stop offset="0" stop-color="#b5dbff"/><stop offset="1" stop-color="#48b2e3"/></linearGradient><linearGradient id="SVGID_9_" gradientTransform="matrix(.518 .855 -.855 .518 1852.226 493.145)" gradientUnits="userSpaceOnUse" x1="-1036.6" x2="-967.558" xlink:href="#lg2" y1="1477.563" y2="1477.563"/><linearGradient id="SVGID_10_" gradientTransform="matrix(.518 .855 -.855 .518 1852.226 493.145)" gradientUnits="userSpaceOnUse" x1="-1036.6" x2="-967.558" xlink:href="#lg2" y1="1392.473" y2="1392.473"/><linearGradient id="SVGID_11_" gradientTransform="matrix(.518 .855 -.855 .518 1852.226 493.145)" gradientUnits="userSpaceOnUse" x1="-1011.991" x2="-992.167" xlink:href="#lg2" y1="1349.461" y2="1349.461"/><linearGradient id="SVGID_12_" gradientTransform="matrix(.518 .855 -.855 .518 1852.226 493.145)" gradientUnits="userSpaceOnUse" x1="-1011.991" x2="-992.167" xlink:href="#lg2" y1="1435.484" y2="1435.484"/><linearGradient id="SVGID_13_" gradientTransform="matrix(.518 .855 -.855 .518 1852.226 493.145)" gradientUnits="userSpaceOnUse" x1="-1011.991" x2="-992.167" xlink:href="#lg2" y1="1521.507" y2="1521.507"/><linearGradient id="SVGID_14_" gradientTransform="matrix(.518 .855 -.855 .518 1852.226 493.145)" gradientUnits="userSpaceOnUse" x1="-1036.927" x2="-967.886" xlink:href="#lg2" y1="1127.213" y2="1127.213"/><linearGradient id="SVGID_15_" gradientTransform="matrix(.518 .855 -.855 .518 1852.226 493.145)" gradientUnits="userSpaceOnUse" x1="-1036.927" x2="-967.886" xlink:href="#lg2" y1="1042.123" y2="1042.123"/><linearGradient id="SVGID_16_" gradientTransform="matrix(.518 .855 -.855 .518 1852.226 493.145)" gradientUnits="userSpaceOnUse" x1="-1012.319" x2="-992.494" xlink:href="#lg2" y1="999.111" y2="999.111"/><linearGradient id="SVGID_17_" gradientTransform="matrix(.518 .855 -.855 .518 1852.226 493.145)" gradientUnits="userSpaceOnUse" x1="-1012.319" x2="-992.494" xlink:href="#lg2" y1="1085.134" y2="1085.134"/><linearGradient id="SVGID_18_" gradientTransform="matrix(.518 .855 -.855 .518 1852.226 493.145)" gradientUnits="userSpaceOnUse" x1="-1012.319" x2="-992.494" xlink:href="#lg2" y1="1171.158" y2="1171.158"/><linearGradient id="SVGID_19_" gradientTransform="matrix(-.518 .855 .855 .518 -1349.333 493.145)" gradientUnits="userSpaceOnUse" x1="-1040.282" x2="-971.24" xlink:href="#lg2" y1="1483.642" y2="1483.642"/><linearGradient id="SVGID_20_" gradientTransform="matrix(-.518 .855 .855 .518 -1349.333 493.145)" gradientUnits="userSpaceOnUse" x1="-1040.282" x2="-971.24" xlink:href="#lg2" y1="1398.551" y2="1398.551"/><linearGradient id="SVGID_21_" gradientTransform="matrix(-.518 .855 .855 .518 -1349.333 493.145)" gradientUnits="userSpaceOnUse" x1="-1015.673" x2="-995.849" xlink:href="#lg2" y1="1355.54" y2="1355.54"/><linearGradient id="SVGID_22_" gradientTransform="matrix(-.518 .855 .855 .518 -1349.333 493.145)" gradientUnits="userSpaceOnUse" x1="-1015.673" x2="-995.849" xlink:href="#lg2" y1="1441.563" y2="1441.563"/><linearGradient id="SVGID_23_" gradientTransform="matrix(-.518 .855 .855 .518 -1349.333 493.145)" gradientUnits="userSpaceOnUse" x1="-1015.673" x2="-995.849" xlink:href="#lg2" y1="1527.586" y2="1527.586"/><linearGradient id="SVGID_24_" gradientTransform="matrix(-.518 .855 .855 .518 -1349.333 493.145)" gradientUnits="userSpaceOnUse" x1="-1040.609" x2="-971.567" xlink:href="#lg2" y1="1133.292" y2="1133.292"/><linearGradient id="SVGID_25_" gradientTransform="matrix(-.518 .855 .855 .518 -1349.333 493.145)" gradientUnits="userSpaceOnUse" x1="-1040.609" x2="-971.567" xlink:href="#lg2" y1="1048.201" y2="1048.201"/><linearGradient id="SVGID_26_" gradientTransform="matrix(-.518 .855 .855 .518 -1349.333 493.145)" gradientUnits="userSpaceOnUse" x1="-1016" x2="-996.176" xlink:href="#lg2" y1="1005.19" y2="1005.19"/><linearGradient id="SVGID_27_" gradientTransform="matrix(-.518 .855 .855 .518 -1349.333 493.145)" gradientUnits="userSpaceOnUse" x1="-1016" x2="-996.176" xlink:href="#lg2" y1="1091.213" y2="1091.213"/><linearGradient id="SVGID_28_" gradientTransform="matrix(-.518 .855 .855 .518 -1349.333 493.145)" gradientUnits="userSpaceOnUse" x1="-1016" x2="-996.176" xlink:href="#lg2" y1="1177.236" y2="1177.236"/><linearGradient id="lg3"><stop offset="0" stop-color="#0b799d"/><stop offset="1" stop-color="#07485e"/></linearGradient><linearGradient id="SVGID_29_" gradientUnits="userSpaceOnUse" x1="213.453" x2="303.997" xlink:href="#lg3" y1="216.122" y2="361.573"/><linearGradient id="SVGID_30_" gradientUnits="userSpaceOnUse" x1="325.848" x2="195.507" y1="362.397" y2="232.055"><stop offset="0" stop-color="#07485e" stop-opacity="0"/><stop offset="1" stop-color="#03232e"/></linearGradient><linearGradient id="lg4"><stop offset="0" stop-color="#edf5ff"/><stop offset="1" stop-color="#b5dbff"/></linearGradient><linearGradient id="SVGID_31_" gradientUnits="userSpaceOnUse" x1="231.852" x2="272.975" xlink:href="#lg4" y1="228.328" y2="269.451"/><linearGradient id="lg5"><stop offset="0" stop-color="#b5dbff" stop-opacity="0"/><stop offset=".2428" stop-color="#93cef6" stop-opacity=".243"/><stop offset=".5763" stop-color="#6abfec" stop-opacity=".576"/><stop offset=".8403" stop-color="#51b5e5" stop-opacity=".84"/><stop offset="1" stop-color="#48b2e3"/></linearGradient><linearGradient id="SVGID_32_" gradientUnits="userSpaceOnUse" x1="257.07" x2="257.07" xlink:href="#lg5" y1="257.907" y2="159.303"/><linearGradient id="SVGID_33_" gradientUnits="userSpaceOnUse" x1="231.401" x2="277.211" xlink:href="#lg4" y1="277.172" y2="322.983"/><linearGradient id="SVGID_34_" gradientUnits="userSpaceOnUse" x1="278.751" x2="233.055" xlink:href="#lg4" y1="322.259" y2="276.563"/><linearGradient id="SVGID_35_" gradientUnits="userSpaceOnUse" x1="274.419" x2="238.607" xlink:href="#lg3" y1="317.931" y2="282.119"/><linearGradient id="SVGID_36_" gradientUnits="userSpaceOnUse" x1="258.725" x2="258.725" xlink:href="#lg5" y1="333.373" y2="347.171"/><g><g><path d="m270.221 140.167h-170.229v-48.483c0-16.066 13.024-29.09 29.09-29.09h112.049c16.066 0 29.09 13.024 29.09 29.09z" fill="url(#SVGID_1_)"/><path d="m226.481 140.167h-170.229v-48.483c0-16.066 13.024-29.09 29.09-29.09h112.049c16.066 0 29.09 13.024 29.09 29.09z" fill="url(#SVGID_2_)"/><path d="m180.153 117.811v-26.127c0-16.066-13.024-29.09-29.09-29.09h-112.049c-16.066 0-29.09 13.024-29.09 29.09v314.099c0 22.888 18.554 41.442 41.442 41.442h414.717c22.888 0 41.442-18.554 41.442-41.442v-233.87c0-22.888-18.554-41.442-41.442-41.442h-273.271c-6.992-.001-12.659-5.668-12.659-12.66z" fill="url(#SVGID_3_)"/><path d="m506.478 415.009c-4.193 18.449-20.682 32.213-40.399 32.213h-177.94l-249.19-249.19c-9.088-6.426-12.484-17.244-11.132-27.789l.241-.251-18.135-18.135v-20.503c1.751 0 3.522.451 5.126 1.426l23.816 15.473c9.214-10.724 25.126-14.603 37.611-7.045l19.749 10.912c3.554 2.159 28.786 27.444 30.662 30.085 7.631-2.201 15.063-1.342 22.369 3.092l19.749 11.961c3.554 2.149 6.457 3.909 8.721 7.096l123.001 122.404c-1.646-2.998-1.698-6.761.199-9.895 2.841-4.686 8.931-6.185 13.617-3.344l23.816 16.522c9.214-10.724 25.126-14.603 37.611-7.034l19.749 10.912c3.554 2.149 28.786 27.444 30.662 30.075 7.631-2.191 15.063-1.331 22.369 3.092l19.749 10.912c2.789 1.685 26.826 25.522 37.979 37.011z" fill="url(#SVGID_4_)"/><path d="m506.366 415.513-184.12-184.12c-15.673-17.317-38.325-28.199-63.521-28.199-47.305 0-85.654 38.348-85.654 85.654 0 25.196 10.882 47.848 28.199 63.521l94.856 94.856h169.957c19.536 0 35.904-13.521 40.283-31.712z" fill="url(#SVGID_5_)"/><path d="m9.924 359.956v45.827c0 22.888 18.554 41.442 41.442 41.442h414.717c22.888 0 41.442-18.554 41.442-41.442v-45.827z" fill="url(#SVGID_6_)"/></g><path d="m51.366 447.225h288.06c-37.667-37.647-130.245-130.181-130.356-130.365-2.836-4.682-8.931-5.13-13.614-2.294l-23.814 15.473c-9.215-10.721-25.128-14.599-37.611-7.038l-19.748 11.962c-12.483 7.561-16.297 22.975-11.064 36.108l-4.357 3.053c-9.215-10.721-25.128-14.599-37.611-7.038l-19.748 11.962c-12.483 7.561-16.296 22.974-11.063 36.107l-16.545 8.337c6.64 14.028 20.92 23.733 37.471 23.733z" fill="url(#SVGID_7_)"/><path d="m489.437 138.434-18.3 10.863c-9.215-10.721-25.128-14.599-37.611-7.038l-19.748 11.962c-12.483 7.561-15.248 22.975-10.015 36.108l-5.406 3.053c-9.215-10.721-25.128-14.599-37.611-7.038l-19.748 11.962c-12.483 7.561-15.248 21.925-10.014 35.058l-26.71 14.908c-4.682 2.836-6.179 7.882-3.343 12.565l182.768 182.462c14.078-6.622 23.828-20.927 23.828-37.515v-233.87c-.001-15.118-6-26.241-18.09-33.48z" fill="url(#SVGID_8_)"/><g><g><g><g><path d="m36.789 427.111-5.227-8.63c-8.421-13.902-3.961-32.062 9.94-40.483l19.748-11.962c13.902-8.421 32.062-3.961 40.483 9.941l5.227 8.63c8.421 13.902 3.961 32.062-9.941 40.483l-19.748 11.962c-13.901 8.42-32.061 3.961-40.482-9.941zm47.988-40.863c-2.757-4.552-8.704-6.012-13.256-3.255l-19.748 11.962c-4.552 2.757-6.012 8.703-3.254 13.255l5.227 8.63c2.757 4.552 8.704 6.012 13.255 3.255l19.748-11.962c4.552-2.757 6.012-8.704 3.255-13.256z" fill="url(#SVGID_9_)"/><path d="m109.569 383.027-5.227-8.63c-8.421-13.902-3.961-32.062 9.941-40.483l19.748-11.962c13.902-8.421 32.062-3.961 40.483 9.941l5.227 8.63c8.421 13.902 3.961 32.062-9.941 40.483l-19.748 11.962c-13.902 8.42-32.062 3.961-40.483-9.941zm47.989-40.863c-2.757-4.552-8.704-6.012-13.256-3.255l-19.748 11.962c-4.552 2.757-6.012 8.704-3.255 13.256l5.227 8.63c2.757 4.552 8.704 6.012 13.256 3.255l19.748-11.962c4.552-2.757 6.012-8.704 3.255-13.256z" fill="url(#SVGID_10_)"/></g><g><path d="m148.592 353.493c-2.836-4.682-1.34-10.777 3.343-13.614l43.522-26.362c4.682-2.836 10.778-1.34 13.614 3.343 2.836 4.682 1.34 10.778-3.343 13.614l-43.522 26.362c-4.683 2.836-10.778 1.339-13.614-3.343z" fill="url(#SVGID_11_)"/><path d="m75.014 398.06c-2.836-4.682-1.34-10.778 3.343-13.614l43.522-26.362c4.682-2.836 10.778-1.34 13.614 3.343 2.836 4.682 1.34 10.778-3.343 13.614l-43.522 26.362c-4.683 2.836-10.778 1.339-13.614-3.343z" fill="url(#SVGID_12_)"/><path d="m1.435 442.627c-2.836-4.682-1.34-10.778 3.343-13.614l43.522-26.361c4.682-2.836 10.778-1.34 13.614 3.343 2.836 4.682 1.34 10.778-3.343 13.614l-43.522 26.361c-4.682 2.836-10.777 1.34-13.614-3.343z" fill="url(#SVGID_13_)"/></g></g><g><g><path d="m336.284 245.319-5.227-8.63c-8.421-13.902-3.961-32.062 9.94-40.483l19.748-11.962c13.902-8.421 32.062-3.961 40.483 9.941l5.227 8.63c8.421 13.902 3.961 32.062-9.941 40.483l-19.748 11.962c-13.901 8.421-32.062 3.961-40.482-9.941zm47.988-40.862c-2.757-4.552-8.704-6.012-13.256-3.255l-19.748 11.962c-4.552 2.757-6.012 8.703-3.254 13.255l5.227 8.63c2.757 4.552 8.704 6.012 13.255 3.255l19.748-11.962c4.552-2.757 6.012-8.704 3.255-13.256z" fill="url(#SVGID_14_)"/><path d="m409.064 201.235-5.227-8.63c-8.421-13.902-3.961-32.062 9.941-40.483l19.748-11.962c13.902-8.421 32.062-3.961 40.483 9.941l5.227 8.63c8.421 13.902 3.961 32.062-9.941 40.483l-19.748 11.962c-13.902 8.42-32.062 3.961-40.483-9.941zm47.988-40.863c-2.757-4.552-8.704-6.012-13.256-3.255l-19.748 11.962c-4.552 2.757-6.012 8.704-3.255 13.256l5.227 8.63c2.757 4.552 8.704 6.012 13.256 3.255l19.748-11.962c4.552-2.757 6.012-8.704 3.255-13.256z" fill="url(#SVGID_15_)"/></g><g><path d="m448.086 171.701c-2.836-4.682-1.34-10.778 3.343-13.614l43.522-26.362c4.682-2.836 10.777-1.34 13.614 3.343 2.836 4.682 1.34 10.778-3.343 13.614l-43.522 26.362c-4.683 2.836-10.778 1.339-13.614-3.343z" fill="url(#SVGID_16_)"/><path d="m374.508 216.268c-2.836-4.682-1.34-10.778 3.343-13.614l43.522-26.362c4.682-2.836 10.777-1.34 13.614 3.343 2.836 4.682 1.34 10.778-3.343 13.614l-43.522 26.362c-4.682 2.836-10.777 1.34-13.614-3.343z" fill="url(#SVGID_17_)"/><path d="m300.93 260.836c-2.836-4.682-1.34-10.778 3.343-13.614l43.522-26.362c4.682-2.836 10.778-1.34 13.614 3.343 2.836 4.682 1.34 10.778-3.343 13.614l-43.522 26.362c-4.683 2.836-10.778 1.339-13.614-3.343z" fill="url(#SVGID_18_)"/></g></g></g><g><g><g><path d="m432.728 437.052-19.748-11.962c-13.902-8.421-18.361-26.581-9.941-40.483l5.227-8.63c8.421-13.902 26.581-18.361 40.483-9.941l19.748 11.962c13.901 8.42 18.361 26.581 9.94 40.483l-5.227 8.63c-8.42 13.902-26.58 18.361-40.482 9.941zm-12.732-42.174c-2.757 4.552-1.297 10.498 3.255 13.256l19.748 11.962c4.552 2.757 10.498 1.297 13.255-3.255l5.227-8.63c2.757-4.552 1.297-10.498-3.254-13.255l-19.748-11.962c-4.552-2.757-10.498-1.297-13.256 3.255z" fill="url(#SVGID_19_)"/><path d="m359.948 392.967-19.748-11.962c-13.902-8.421-18.361-26.581-9.941-40.483l5.227-8.63c8.421-13.902 26.581-18.361 40.483-9.941l19.748 11.962c13.902 8.421 18.361 26.581 9.941 40.483l-5.227 8.63c-8.421 13.903-26.581 18.362-40.483 9.941zm-12.733-42.174c-2.757 4.552-1.297 10.498 3.255 13.256l19.748 11.962c4.552 2.757 10.498 1.297 13.256-3.255l5.227-8.63c2.757-4.552 1.297-10.498-3.255-13.256l-19.748-11.962c-4.552-2.757-10.498-1.297-13.256 3.255z" fill="url(#SVGID_20_)"/></g><g><path d="m361.408 353.493c2.836-4.682 1.34-10.777-3.343-13.614l-43.522-26.362c-4.682-2.836-10.778-1.34-13.614 3.343s-1.34 10.778 3.343 13.614l43.522 26.362c4.683 2.836 10.778 1.339 13.614-3.343z" fill="url(#SVGID_21_)"/><path d="m434.986 398.06c2.836-4.682 1.34-10.778-3.343-13.614l-43.522-26.362c-4.682-2.836-10.778-1.34-13.614 3.343s-1.34 10.778 3.343 13.614l43.522 26.362c4.683 2.836 10.778 1.339 13.614-3.343z" fill="url(#SVGID_22_)"/><path d="m508.565 442.627c2.836-4.682 1.34-10.778-3.343-13.614l-43.522-26.361c-4.682-2.836-10.778-1.34-13.614 3.343s-1.34 10.778 3.343 13.614l43.522 26.362c4.682 2.835 10.777 1.339 13.614-3.344z" fill="url(#SVGID_23_)"/></g></g><g><g><path d="m133.234 255.26-19.748-11.962c-13.902-8.421-18.361-26.581-9.941-40.483l5.227-8.63c8.421-13.902 26.581-18.361 40.483-9.941l19.748 11.962c13.901 8.42 18.361 26.581 9.94 40.483l-5.227 8.63c-8.42 13.902-26.581 18.362-40.482 9.941zm-12.733-42.174c-2.757 4.552-1.297 10.498 3.255 13.256l19.748 11.962c4.552 2.757 10.498 1.297 13.255-3.255l5.227-8.63c2.757-4.552 1.297-10.498-3.254-13.255l-19.748-11.962c-4.552-2.757-10.498-1.297-13.256 3.255z" fill="url(#SVGID_24_)"/><path d="m60.453 211.176-19.748-11.962c-13.902-8.421-18.361-26.581-9.941-40.483l5.227-8.63c8.421-13.902 26.581-18.361 40.483-9.941l19.748 11.962c13.902 8.421 18.361 26.581 9.941 40.483l-5.227 8.63c-8.421 13.902-26.581 18.361-40.483 9.941zm-12.732-42.174c-2.757 4.552-1.297 10.498 3.255 13.256l19.748 11.962c4.552 2.757 10.498 1.297 13.256-3.255l5.227-8.63c2.757-4.552 1.297-10.498-3.255-13.256l-19.748-11.962c-4.552-2.757-10.498-1.297-13.256 3.255z" fill="url(#SVGID_25_)"/></g><g><path d="m61.914 171.701c2.836-4.682 1.34-10.778-3.343-13.614l-43.522-26.362c-4.682-2.836-10.778-1.34-13.614 3.343s-1.34 10.778 3.343 13.614l43.522 26.362c4.683 2.836 10.778 1.339 13.614-3.343z" fill="url(#SVGID_26_)"/><path d="m135.492 216.268c2.836-4.682 1.34-10.778-3.343-13.614l-43.522-26.362c-4.682-2.836-10.778-1.34-13.614 3.343-2.836 4.682-1.34 10.778 3.343 13.614l43.522 26.362c4.682 2.836 10.777 1.34 13.614-3.343z" fill="url(#SVGID_27_)"/><path d="m209.07 260.836c2.836-4.682 1.34-10.778-3.343-13.614l-43.522-26.362c-4.682-2.836-10.778-1.34-13.614 3.343-2.836 4.682-1.34 10.778 3.343 13.614l43.522 26.362c4.683 2.836 10.778 1.339 13.614-3.343z" fill="url(#SVGID_28_)"/></g></g></g><g><circle cx="258.725" cy="288.848" fill="url(#SVGID_29_)" r="85.654"/><path d="m344.378 288.848c0-1.498-.04-2.987-.116-4.467l-55.001-55.002c-8.031-8.646-19.487-13.021-32.191-13.021-24.234 0-42.902 18.667-42.902 42.902v5.35c-3.605 1.849-6.078 4.546-6.078 8.876v62.019c0 3.671.732 6.918 3.468 8.951l27.825 27.825c6.218 1.436 12.686 2.22 19.341 2.22 47.306.001 85.654-38.348 85.654-85.653z" fill="url(#SVGID_30_)"/><g><g><path d="m301.021 266.008h-15.961v-6.748c0-15.434-12.556-27.99-27.99-27.99s-27.99 12.556-27.99 27.99v6.748h-15.961v-6.748c0-24.234 19.716-43.951 43.951-43.951 24.234 0 43.951 19.716 43.951 43.951z" fill="url(#SVGID_31_)"/><path d="m257.07 223.951c-20.104 0-36.459 16.355-36.459 36.459v5.598h8.469v-6.748c0-15.434 12.556-27.99 27.99-27.99s27.99 12.556 27.99 27.99v6.748h8.469v-5.598c0-20.104-16.356-36.459-36.459-36.459z" fill="url(#SVGID_32_)"/></g><g><g><path d="m299.251 346.663h-81.052c-6.162 0-11.157-4.995-11.157-11.157v-62.019c0-6.162 4.995-11.157 11.157-11.157h81.052c6.162 0 11.157 4.995 11.157 11.157v62.019c0 6.162-4.996 11.157-11.157 11.157z" fill="url(#SVGID_33_)"/><path d="m278.538 296.547c0-10.943-8.871-19.814-19.814-19.814s-19.814 8.871-19.814 19.814c0 7.747 4.448 14.451 10.928 17.708v9.118c0 4.907 3.978 8.886 8.886 8.886 4.907 0 8.886-3.978 8.886-8.886v-9.118c6.48-3.257 10.928-9.961 10.928-17.708z" fill="url(#SVGID_34_)"/><path d="m258.725 327.108c-2.059 0-3.735-1.675-3.735-3.735v-12.293l-2.837-1.426c-4.99-2.509-8.091-7.531-8.091-13.106 0-8.085 6.577-14.662 14.662-14.662s14.662 6.577 14.662 14.662c0 5.575-3.1 10.597-8.091 13.106l-2.837 1.426v12.293c.001 2.059-1.674 3.735-3.733 3.735z" fill="url(#SVGID_35_)"/><path d="m207.042 318.62v16.886c0 6.162 4.995 11.157 11.157 11.157h81.052c6.162 0 11.157-4.995 11.157-11.157v-16.886z" fill="url(#SVGID_36_)"/></g></g></g></g></g></g></svg>