<svg id="Capa_1" enable-background="new 0 0 512 512" height="512" viewBox="0 0 512 512" width="512" xmlns="http://www.w3.org/2000/svg"><g><g><g><g><g><g><g><g><g><g><g><g><g><g><g><g><g><g><g><g><circle cx="256" cy="256" fill="#bdeaf9" r="256"/></g></g></g></g></g></g></g></g></g></g></g></g></g></g></g></g></g></g><path d="m240.789 58.844 15.045 22.554-10 45.948 45.934 45.934-8.845 39.938-52.235-52.235-10.214-2.927-32.308 196.498-88.156 64.455 82.168 82.168c23.376 7.028 48.154 10.823 73.822 10.823 132.679 0 241.778-100.936 254.712-230.208l-237.085-237.085z" fill="#5ecdf3"/><path d="m255.833 57.325 7-9.995-7-10.005c-13.882 0-25.176 11.294-25.176 25.176 0 10.33 6.256 19.222 15.176 23.099v41.746h10l7-34.189-7-25.48c-2.854 0-5.176-2.322-5.176-5.176s2.323-5.176 5.176-5.176z" fill="#00347b"/><path d="m265.833 108.279v-22.679c8.92-3.877 15.176-12.769 15.176-23.099 0-13.882-11.294-25.176-25.176-25.176v20c2.854 0 5.176 2.322 5.176 5.176s-2.322 5.176-5.176 5.176v59.669c18.564 0 33.667 15.103 33.667 33.667s-15.103 33.667-33.667 33.667v20c29.592 0 53.667-24.075 53.667-53.667 0-26.176-18.838-48.034-43.667-52.734z" fill="#002659"/><g><path d="m255.833 392.28-133.72 3.106v-180.268h133.72l53.528 96.489z" fill="#00347b"/><g><g><path d="m255.833 215.118h133.72v180.268h-133.72z" fill="#002659"/></g></g><path d="m255.833 395.909h-112.205v-158.776h112.205l60.789 81.318z" fill="#ff6c52"/><path d="m255.833 237.133h112.206v158.777h-112.206z" fill="#ff432e"/></g><g><path d="m189.14 395.386v-222.107h66.86l43.333 115.221-43.5 106.886z" fill="#42db8f"/><g fill="#0acb72"><path d="m226.765 173.279h-37.625v37.625c20.78 0 37.625-16.845 37.625-37.625z"/><path d="m256 173.279h66.86v222.107h-66.86z"/><path d="m312.089 302.22-56.089 56.089c-30.977 0-56.089-25.112-56.089-56.089s25.112-56.089 56.089-56.089z"/></g><path d="m285.235 173.279c0 20.779 16.845 37.625 37.625 37.625v-37.625z" fill="#02aa56"/><path d="m312.089 302.22c0 30.977-25.112 56.089-56.089 56.089v-112.178c30.977 0 56.089 25.111 56.089 56.089z" fill="#02aa56"/><path d="m279.882 285.238c-3.14-3.252-6.941-4.876-11.404-4.876-3.582 0-6.46.88-8.636 2.644-1.551 1.256-2.823 2.739-3.842 4.429v30.567c.366-.633.7-1.292.992-1.983 1.101-2.617 2.12-5.909 3.057-9.875h16.693c-.551 4.738-2.039 9.2-4.462 13.386l8.346 3.389c1.432-2.204 2.589-4.781 3.471-7.727.881-2.947 1.405-5.964 1.57-9.048h9.172v-6.776h-9.338c-.607-6.17-2.479-10.881-5.619-14.13zm-18.098 14.131c.771-2.7 1.707-4.766 2.81-6.198 1.102-1.434 2.562-2.149 4.38-2.149 1.928 0 3.553.688 4.875 2.066 1.322 1.376 2.203 3.471 2.644 6.281z" fill="#e2e1f4"/><path d="m256 287.435c-.411.682-.791 1.389-1.116 2.141-1.129 2.616-2.162 5.88-3.099 9.793h-16.527c.275-3.141.977-6.171 2.107-9.09 1.128-2.921 2.52-5.4 4.173-7.438l-8.346-3.718c-1.874 2.148-3.417 5.041-4.628 8.676-1.212 3.637-1.955 7.492-2.231 11.57h-9.172v6.776h9.255c.661 6.225 2.547 10.976 5.66 14.255 3.112 3.276 6.9 4.917 11.362 4.917 3.581 0 6.459-.896 8.636-2.686 1.601-1.317 2.906-2.863 3.926-4.628zm-8.801 25.072c-1.13 1.487-2.631 2.232-4.504 2.232s-3.444-.703-4.71-2.108c-1.268-1.404-2.121-3.568-2.561-6.486h14.626c-.772 2.754-1.723 4.875-2.851 6.362z" fill="#fff"/></g><path d="m233.725 389.599h-139.367v15.767c0 10.655 8.637 19.292 19.292 19.292h142.183l15.011-17.53-15.011-7.016z" fill="#0051be"/><path d="m417.308 389.599h-139.366l-22.108 10.514v24.545h142.183c10.655 0 19.292-8.637 19.292-19.292v-15.767z" fill="#00347b"/><path d="m255.833 400.113h-22.108v-10.514h22.108l3.519 5.257z" fill="#00347b"/><path d="m255.833 389.599h22.108v10.514h-22.108z" fill="#002659"/></g><path d="m238.167 189.655c-9.594-5.939-16.001-16.555-16.001-28.644h8.491l-28.491-28.606v28.606c0 20.724 11.816 38.729 29.057 47.667z" fill="#00347b"/></g></svg>