<?xml version="1.0"?>
<svg xmlns="http://www.w3.org/2000/svg" viewBox="0 0 512 512" width="512" height="512"><g id="Filled_outline" data-name="Filled outline"><path d="M464,56H264V472H464a24,24,0,0,0,24-24V80A24,24,0,0,0,464,56Z" style="fill:#78b9c1"/><path d="M432,440a24,24,0,0,0,24-24V104L376,24H152a24,24,0,0,0-24,24V416a24,24,0,0,0,24,24Z" style="fill:#85ccd5"/><path d="M400,104h56L376,24V80A24,24,0,0,0,400,104Z" style="fill:#add7db"/><rect x="24" y="328" width="240" height="160" rx="16" ry="16" style="fill:#d65246"/><path d="M56,272v24H96V272a48,48,0,0,1,48-48h0a48,48,0,0,1,48,48v56h40V272a88,88,0,0,0-88-88h0A88,88,0,0,0,56,272Z" style="fill:#dfdfdd"/><path d="M160,400a16,16,0,1,0-24,13.842V440h16V413.842A15.98,15.98,0,0,0,160,400Z" style="fill:#b93f33"/><path d="M464,48H411.314L381.657,18.343A8,8,0,0,0,376,16H152a32.036,32.036,0,0,0-32,32V160h16V48a16.019,16.019,0,0,1,16-16H368V80a32.036,32.036,0,0,0,32,32h48V416a16.019,16.019,0,0,1-16,16H288v16H432a32.036,32.036,0,0,0,32-32V104a8,8,0,0,0-2.343-5.657L427.314,64H464a16.019,16.019,0,0,1,16,16V448a16.019,16.019,0,0,1-16,16H288v16H464a32.036,32.036,0,0,0,32-32V80A32.036,32.036,0,0,0,464,48ZM384,80V43.313L436.687,96H400A16.019,16.019,0,0,1,384,80ZM136,256v48H120V256ZM176,64H160V48h16Zm32,0H192V48h16Zm32,0H224V48h16Zm32,280V472a24.027,24.027,0,0,1-24,24H40a24.027,24.027,0,0,1-24-24V376H32v96a8.009,8.009,0,0,0,8,8H248a8.009,8.009,0,0,0,8-8V344a8.009,8.009,0,0,0-8-8H40a8.009,8.009,0,0,0-8,8v16H16V344a24.027,24.027,0,0,1,24-24H184V272a40,40,0,0,0-80,0v24a8,8,0,0,1-8,8H56a8,8,0,0,1-8-8V272a95.121,95.121,0,0,1,30.109-69.818l10.985,11.635A79.265,79.265,0,0,0,64,272v16H88V272a56,56,0,0,1,112,0v48h24V272a80.015,80.015,0,0,0-123.631-67.067l-8.738-13.4A96.014,96.014,0,0,1,240,272v48h8A24.027,24.027,0,0,1,272,344ZM152,440V422.624a24,24,0,1,0-16,0V440Zm-8-48a8,8,0,1,1-8,8A8.009,8.009,0,0,1,144,392Zm16-264a24,24,0,0,0,48,0V112a24,24,0,0,0-48,0Zm16-16a8,8,0,0,1,16,0v16a8,8,0,0,1-16,0Zm48-24h16v64H224Zm56,0a24.027,24.027,0,0,0-24,24v16a24,24,0,0,0,48,0V112A24.027,24.027,0,0,0,280,88Zm8,40a8,8,0,0,1-16,0V112a8,8,0,0,1,16,0Zm56-40a24.027,24.027,0,0,0-24,24v16a24,24,0,0,0,48,0V112A24.027,24.027,0,0,0,344,88Zm8,40a8,8,0,0,1-16,0V112a8,8,0,0,1,16,0ZM248,192v16a24,24,0,0,0,48,0V192a24,24,0,0,0-48,0Zm16,0a8,8,0,0,1,16,0v16a8,8,0,0,1-16,0Zm48-24h16v64H312Zm56,0a24.027,24.027,0,0,0-24,24v16a24,24,0,0,0,48,0V192A24.027,24.027,0,0,0,368,168Zm8,40a8,8,0,0,1-16,0V192a8,8,0,0,1,16,0Zm48-40v64H408V168ZM264,248h16v64H264Zm32,24v16a24,24,0,0,0,48,0V272a24,24,0,0,0-48,0Zm16,0a8,8,0,0,1,16,0v16a8,8,0,0,1-16,0Zm96,0a24,24,0,0,0-48,0v16a24,24,0,0,0,48,0Zm-16,16a8,8,0,0,1-16,0V272a8,8,0,0,1,16,0Zm-96,48h16v64H296Zm96,0h16v64H392Zm-64,24v16a24,24,0,0,0,48,0V360a24,24,0,0,0-48,0Zm32,0v16a8,8,0,0,1-16,0V360a8,8,0,0,1,16,0Z"/></g></svg>
