<?xml version="1.0" standalone="no"?>
<!DOCTYPE svg PUBLIC "-//W3C//DTD SVG 20010904//EN"
 "http://www.w3.org/TR/2001/REC-SVG-20010904/DTD/svg10.dtd">
<svg version="1.0" xmlns="http://www.w3.org/2000/svg"
 width="230.000000pt" height="96.000000pt" viewBox="0 0 230.000000 96.000000"
 preserveAspectRatio="xMidYMid meet">

<g transform="translate(0.000000,96.000000) scale(0.100000,-0.100000)"
fill="#000000" stroke="none">
<path d="M1720 832 l-135 -27 -3 -53 -3 -52 110 0 111 0 0 -55 0 -55 -67 0
c-108 0 -113 -3 -113 -64 l0 -52 130 -33 c122 -32 134 -33 185 -22 l55 12 0
136 0 136 51 -6 c78 -9 79 -12 79 -148 0 -144 -7 -165 -57 -178 -141 -37 -155
-37 -275 -4 -87 24 -124 30 -158 25 l-45 -7 0 -49 0 -49 147 -79 147 -79 156
50 c187 61 210 72 231 113 34 66 44 406 14 470 -24 51 -66 64 -250 82 -156 15
-177 15 -310 -12z m-13 -258 c-3 -3 -12 -4 -19 -1 -8 3 -5 6 6 6 11 1 17 -2
13 -5z"/>
<path d="M30 745 c0 -50 -4 -85 -10 -85 -5 0 -10 -15 -10 -34 0 -25 5 -35 20
-39 15 -4 20 -14 20 -42 0 -21 -4 -34 -10 -30 -6 4 -10 -13 -10 -44 l0 -51 40
0 40 0 0 80 c0 78 -1 80 -25 80 -32 0 -51 33 -29 51 13 10 14 27 9 96 l-7 83
176 0 c111 0 176 4 176 10 0 6 -70 10 -190 10 l-190 0 0 -85z"/>
<path d="M564 740 c-40 -75 -53 -92 -78 -99 -31 -9 -30 -9 9 -9 22 1 46 6 53
11 8 6 31 46 53 89 22 43 44 78 49 78 6 0 10 5 10 10 0 6 -11 10 -24 10 -21 0
-32 -14 -72 -90z"/>
<path d="M960 746 l0 -86 -87 0 c-72 -1 -85 -3 -72 -13 11 -8 49 -12 100 -12
l84 0 0 85 0 85 187 0 c125 0 184 3 177 10 -6 6 -91 11 -199 13 l-190 4 0 -86z"/>
<path d="M1305 707 l0 -42 -135 -5 c-99 -4 -130 -8 -115 -15 22 -11 270 -13
281 -2 13 13 5 70 -13 88 -17 18 -18 17 -18 -24z"/>
<path d="M680 721 c0 -6 4 -13 10 -16 6 -3 7 1 4 9 -7 18 -14 21 -14 7z"/>
<path d="M700 686 c0 -3 28 -64 61 -136 l62 -130 44 0 43 0 -21 43 c-45 87
-68 117 -93 117 -16 0 -31 12 -50 40 -14 22 -26 44 -26 49 0 5 -4 13 -10 16
-5 3 -10 4 -10 1z"/>
<path d="M148 633 c6 -2 18 -2 25 0 6 3 1 5 -13 5 -14 0 -19 -2 -12 -5z"/>
<path d="M308 633 c7 -3 16 -2 19 1 4 3 -2 6 -13 5 -11 0 -14 -3 -6 -6z"/>
<path d="M495 580 c3 -6 -4 -26 -16 -46 -13 -22 -24 -31 -29 -25 -4 7 -18 -9
-34 -39 l-27 -50 43 0 44 0 37 76 c21 42 37 77 35 79 -2 1 -16 5 -31 9 -19 5
-26 3 -22 -4z"/>
<path d="M966 527 c-3 -33 -6 -71 -6 -84 l0 -25 195 4 c223 3 230 6 240 88 7
55 0 65 -45 72 l-36 6 4 -35 c3 -23 0 -38 -9 -44 -8 -5 -74 -9 -146 -9 l-133
0 0 39 c0 35 -3 39 -29 43 -28 4 -29 3 -35 -55z"/>
<path d="M1261 361 c-16 -29 -13 -41 9 -41 11 0 20 -4 20 -10 0 -5 7 -10 15
-10 8 0 15 -4 15 -10 0 -5 -4 -10 -10 -10 -15 0 -12 -57 3 -63 10 -4 10 -6 0
-6 -7 -1 -13 -10 -13 -21 0 -15 7 -20 25 -20 25 0 25 1 22 65 -2 48 0 65 10
65 7 0 13 7 13 15 0 8 5 15 10 15 6 0 10 9 10 20 0 17 -7 20 -44 20 -24 0 -51
3 -59 6 -9 3 -20 -3 -26 -15z"/>
<path d="M35 328 c-3 -13 -2 -48 2 -78 l8 -55 68 -3 c57 -2 67 0 67 14 0 14
-7 16 -50 11 -63 -8 -80 7 -80 69 0 48 3 51 90 57 30 2 21 4 -27 5 -68 2 -73
0 -78 -20z"/>
<path d="M220 326 c-5 -14 -5 -36 0 -53 8 -28 8 -28 9 8 1 20 7 41 14 47 7 6
44 13 82 15 l70 3 -83 2 c-79 2 -83 1 -92 -22z"/>
<path d="M423 270 c1 -56 6 -80 15 -80 9 0 11 17 6 71 -6 55 -4 73 7 80 11 7
9 9 -8 9 -21 0 -22 -3 -20 -80z"/>
<path d="M571 323 c0 -16 4 -37 8 -48 6 -15 9 -9 12 28 3 33 0 47 -8 47 -8 0
-13 -12 -12 -27z"/>
<path d="M657 343 c-4 -3 -6 -27 -5 -52 1 -43 2 -43 5 -9 5 47 17 56 83 61
l55 3 -66 2 c-36 1 -69 -1 -72 -5z"/>
<path d="M842 270 l3 -80 78 0 c65 0 77 3 77 16 0 14 -9 16 -60 11 -71 -6 -80
3 -80 77 l0 45 73 4 72 3 -83 2 -82 2 2 -80z"/>
<path d="M1040 303 c0 -25 3 -43 7 -39 4 4 6 22 4 41 l-2 34 78 4 78 3 -82 2
-83 2 0 -47z"/>
<path d="M374 273 l7 -53 -65 0 c-36 0 -68 5 -71 10 -11 18 -26 10 -23 -12 3
-21 9 -23 76 -26 92 -4 103 4 95 66 -3 26 -10 52 -16 57 -6 7 -7 -8 -3 -42z"/>
<path d="M1183 293 c5 -21 1 -22 -57 -26 l-61 -3 63 -2 c49 -2 64 1 69 14 3 8
0 21 -7 27 -10 10 -12 7 -7 -10z"/>
<path d="M515 249 c55 -62 85 -74 85 -35 0 21 -5 25 -30 24 -22 -1 -42 9 -68
33 -26 24 -23 18 13 -22z"/>
<path d="M935 280 l-40 -7 53 -2 c33 0 51 3 47 9 -3 6 -9 9 -13 9 -4 -1 -25
-5 -47 -9z"/>
<path d="M1048 220 c-3 -20 0 -30 9 -30 7 0 13 11 13 24 0 36 -17 41 -22 6z"/>
<path d="M654 218 c1 -21 6 -23 69 -26 57 -2 67 0 67 14 0 14 -7 16 -49 11
-37 -4 -53 -2 -61 9 -18 20 -27 17 -26 -8z"/>
</g>
</svg>
