<?xml version="1.0" standalone="no"?>
<!DOCTYPE svg PUBLIC "-//W3C//DTD SVG 20010904//EN"
 "http://www.w3.org/TR/2001/REC-SVG-20010904/DTD/svg10.dtd">
<svg version="1.0" xmlns="http://www.w3.org/2000/svg"
 width="120.000000pt" height="120.000000pt" viewBox="0 0 120.000000 120.000000"
 preserveAspectRatio="xMidYMid meet">
<metadata>
Created by potrace 1.10, written by Peter Selinger 2001-2011
</metadata>
<g transform="translate(0.000000,120.000000) scale(0.100000,-0.100000)"
fill="#000000" stroke="none">
<path d="M537 1124 c-26 -25 -47 -52 -47 -59 0 -7 -17 -16 -37 -20 -58 -10
-135 -48 -171 -85 -18 -18 -46 -58 -61 -89 -43 -84 -70 -105 -126 -99 -43 5
-45 4 -39 -16 11 -37 33 -74 46 -79 7 -2 9 -8 5 -13 -4 -4 -17 -2 -28 5 -12 7
-23 11 -25 9 -2 -3 4 -29 12 -60 18 -61 60 -120 107 -148 26 -16 29 -24 31
-73 5 -114 104 -251 223 -307 196 -92 438 -9 533 184 32 65 52 165 31 151 -7
-4 -11 -16 -9 -28 3 -21 -1 -22 -71 -22 l-74 0 -49 -90 c-26 -50 -59 -99 -72
-110 -20 -18 -21 -23 -10 -45 21 -38 17 -47 -23 -54 -81 -13 -203 -3 -203 18
0 6 6 23 14 38 13 25 12 28 -9 42 -12 8 -39 47 -59 86 -59 118 -56 115 -137
115 l-71 0 -3 33 -3 33 47 -6 c25 -3 56 -8 67 -10 19 -4 22 1 28 50 5 46 2 65
-20 118 -19 43 -28 86 -31 142 -4 70 -2 86 19 125 44 85 118 110 207 70 24
-11 56 -20 71 -20 15 0 47 9 71 20 89 40 163 15 207 -70 21 -39 23 -55 19
-125 -3 -56 -12 -99 -31 -142 -22 -52 -25 -72 -20 -117 l6 -54 42 5 c87 9 105
14 144 43 47 34 87 96 101 160 5 24 8 46 6 48 -1 2 -12 -2 -24 -9 -31 -20 -35
-4 -7 24 14 15 26 33 26 41 0 8 3 21 6 29 4 13 -2 14 -36 10 -50 -7 -79 16
-114 91 -12 28 -35 65 -50 83 -36 43 -134 90 -204 99 -67 8 -78 15 -87 55 -6
28 -8 29 -25 14 -16 -15 -18 -15 -24 0 -3 9 -6 25 -6 36 0 29 -12 24 -63 -27z
m83 -39 c5 3 18 -8 30 -25 12 -16 30 -30 40 -30 10 0 22 -5 25 -10 4 -6 10 -8
13 -6 9 5 115 -19 134 -30 52 -32 88 -74 119 -139 30 -63 75 -105 113 -105 21
0 20 -12 -4 -43 l-21 -26 25 -22 c21 -18 23 -25 15 -49 -15 -42 -76 -108 -121
-131 -24 -12 -54 -19 -76 -17 -36 3 -37 4 -40 46 -2 28 5 64 22 106 35 87 36
201 4 266 -36 71 -130 123 -178 100 -8 -4 -39 -15 -67 -25 -49 -16 -55 -16
-100 0 -27 9 -56 21 -66 26 -48 25 -146 -28 -184 -100 -31 -60 -32 -168 -1
-249 24 -66 35 -149 20 -164 -16 -16 -87 1 -137 34 -65 43 -122 148 -81 148
25 0 28 33 6 63 -25 32 -24 34 10 39 45 7 81 40 115 108 18 36 51 83 74 103
41 37 143 76 149 57 2 -5 28 20 59 56 l55 65 20 -26 c11 -14 23 -23 28 -20z
m-263 -742 c3 -7 -8 -15 -24 -18 -15 -4 -38 -11 -51 -16 -30 -12 -42 -4 -42
27 0 24 2 25 57 22 33 -2 58 -8 60 -15z m603 -6 c0 -13 -2 -26 -5 -29 -6 -5
-105 20 -115 29 -11 10 29 23 73 23 43 0 47 -2 47 -23z m-548 -74 l26 -56 -26
-33 c-15 -19 -30 -34 -34 -34 -11 0 -61 51 -97 97 -24 31 -29 44 -19 48 71 26
95 34 108 34 9 0 26 -24 42 -56z m469 42 c24 -9 50 -17 57 -20 10 -4 8 -12 -8
-35 -28 -40 -96 -110 -107 -110 -4 0 -20 15 -35 33 l-26 34 26 56 c15 31 32
56 38 56 6 1 31 -6 55 -14z m-411 -140 c10 -12 10 -21 2 -41 -12 -24 -13 -24
-43 -9 -27 14 -29 18 -17 33 27 35 40 39 58 17z m299 5 c33 -17 33 -39 1 -55
-29 -15 -31 -15 -42 9 -8 20 -8 29 2 41 15 18 16 18 39 5z"/>
<path d="M711 700 c-2 -3 -5 -39 -8 -80 -4 -74 -20 -110 -49 -110 -7 0 -17 12
-22 28 l-10 27 -1 -26 c-1 -31 13 -44 54 -53 24 -5 35 -17 54 -56 24 -51 23
-80 -4 -80 -8 0 -33 -12 -55 -26 -47 -31 -100 -29 -149 5 -16 12 -36 21 -45
21 -27 0 -29 26 -5 78 22 48 25 50 73 58 37 7 52 14 54 27 3 16 1 17 -17 5
-18 -11 -24 -9 -55 21 -19 18 -33 38 -30 45 2 6 0 34 -5 61 l-9 50 -1 -59 -1
-60 -28 27 c-28 26 -55 33 -86 21 -9 -3 -16 -10 -16 -15 0 -5 11 -3 25 3 22
10 29 8 51 -12 24 -24 24 -24 4 -32 -28 -10 -25 -34 8 -67 l28 -28 -22 -48
c-27 -59 -20 -86 26 -100 27 -8 38 -20 56 -62 25 -56 50 -71 99 -59 19 5 32
21 49 59 19 43 29 54 57 62 28 8 35 15 37 42 2 18 -6 49 -18 72 -16 33 -18 41
-6 41 17 0 56 46 56 67 0 7 -9 17 -20 21 l-21 8 21 22 c24 25 25 26 51 12 11
-6 19 -7 19 -1 0 10 -24 21 -49 21 -9 0 -30 -14 -47 -31 l-29 -31 -6 69 c-3
37 -7 66 -8 63z m-243 -157 c-2 -13 5 -19 25 -21 33 -4 36 -22 4 -22 -33 0
-62 23 -54 44 8 22 29 21 25 -1z m299 1 c7 -19 -21 -44 -49 -44 -26 0 -22 18
5 22 15 2 21 9 19 21 -4 22 17 23 25 1z m-117 -279 c-1 -35 -59 -54 -82 -27
-31 36 -29 39 27 38 31 0 55 -5 55 -11z"/>
<path d="M524 405 c3 -9 6 -18 6 -20 0 -2 16 -12 35 -21 32 -15 38 -15 69 0
29 14 53 42 43 52 -1 2 -20 -1 -41 -6 -21 -5 -44 -7 -50 -5 -52 16 -68 16 -62
0z"/>
<path d="M543 140 c26 -8 127 -4 136 6 2 2 -34 4 -80 3 -61 0 -77 -3 -56 -9z"/>
</g>
</svg>
