<?xml version="1.0" standalone="no"?>
<!DOCTYPE svg PUBLIC "-//W3C//DTD SVG 20010904//EN"
 "http://www.w3.org/TR/2001/REC-SVG-20010904/DTD/svg10.dtd">
<svg version="1.0" xmlns="http://www.w3.org/2000/svg"
 width="300.000000pt" height="213.000000pt" viewBox="0 0 300.000000 213.000000"
 preserveAspectRatio="xMidYMid meet">
<metadata>
Created by potrace 1.10, written by Peter Selinger 2001-2011
</metadata>
<g transform="translate(0.000000,213.000000) scale(0.100000,-0.100000)"
fill="#000000" stroke="none">
<path d="M380 1990 c-58 -4 -110 -13 -133 -24 -74 -36 -115 -114 -97 -189 16
-72 76 -114 232 -161 164 -50 225 -116 199 -214 -35 -128 -210 -171 -368 -90
-68 35 -96 30 -48 -8 74 -59 252 -77 341 -34 84 41 133 147 104 223 -30 75
-75 104 -248 162 -84 27 -122 46 -148 71 -35 33 -36 35 -32 93 5 70 22 94 88
124 41 19 69 21 318 25 l272 4 0 -253 c0 -140 3 -306 8 -369 l7 -115 6 75 c4
41 7 207 8 368 l1 292 75 0 c41 0 75 4 75 8 0 19 -446 27 -660 12z"/>
<path d="M1130 1995 c0 -3 58 -83 128 -178 70 -94 136 -183 145 -197 14 -20
17 -48 17 -156 0 -145 8 -226 21 -218 5 3 9 81 9 175 l0 169 121 162 c145 193
174 236 166 244 -8 9 -37 -26 -174 -208 -65 -86 -120 -157 -123 -157 -3 0 -57
68 -120 152 -129 170 -168 217 -181 217 -5 0 -9 -2 -9 -5z"/>
<path d="M1878 1994 c-5 -4 -8 -173 -8 -376 l0 -368 225 2 c142 2 225 7 225
13 0 6 -78 11 -210 13 l-210 2 -1 278 c-1 290 -9 449 -21 436z"/>
<path d="M2447 1993 c-4 -3 -7 -172 -7 -375 l0 -368 225 2 c142 2 225 7 225
13 0 6 -78 11 -210 13 l-210 2 0 348 c0 319 -4 384 -23 365z"/>
<path d="M397 725 c-36 -79 -81 -168 -101 -197 -41 -62 -146 -169 -146 -149 0
20 45 95 102 170 26 35 48 68 48 72 0 22 -24 3 -74 -59 -95 -118 -134 -222
-83 -222 21 0 33 9 116 84 24 22 32 26 27 13 -23 -65 -10 -97 40 -97 35 0 127
41 236 104 51 29 94 53 96 51 1 -1 -2 -14 -8 -29 -27 -71 -2 -126 58 -126 48
0 186 54 307 120 l109 60 23 -27 c12 -16 22 -30 23 -33 0 -3 -20 -16 -44 -29
-56 -29 -80 -55 -72 -77 5 -14 16 -16 65 -11 74 6 111 29 111 68 0 17 7 32 18
38 22 12 295 81 300 76 2 -1 -5 -20 -16 -42 -68 -135 -46 -167 84 -123 32 11
103 43 157 70 53 28 100 50 102 50 3 0 -5 -17 -18 -38 -64 -102 -24 -135 66
-53 37 33 39 34 32 11 -14 -48 -41 -85 -95 -129 -76 -61 -85 -75 -70 -111 14
-34 55 -74 68 -66 5 3 28 50 51 103 38 90 46 101 94 134 69 47 317 183 323
177 2 -3 -11 -42 -30 -87 -19 -44 -30 -83 -26 -86 5 -3 59 56 120 130 62 75
114 134 117 131 3 -3 -12 -55 -32 -115 -41 -119 -39 -141 11 -141 39 0 147 45
264 110 121 68 159 95 148 105 -4 4 -65 -24 -135 -63 -189 -104 -305 -148
-290 -109 10 26 65 203 71 230 13 55 -55 17 -132 -74 -29 -33 -52 -57 -52 -51
0 5 11 35 25 66 14 31 25 61 25 66 0 20 -19 9 -37 -22 -14 -23 -49 -49 -119
-87 -54 -30 -141 -79 -193 -108 -51 -29 -91 -47 -88 -40 109 285 107 312 -18
212 -89 -72 -359 -205 -416 -205 -25 0 -24 3 37 143 24 56 44 105 44 109 0 19
-20 5 -38 -26 -14 -24 -30 -36 -54 -41 -18 -4 -100 -25 -182 -46 -81 -22 -149
-39 -150 -37 -26 35 -36 57 -36 75 0 26 45 60 90 70 32 6 32 6 25 -26 -7 -33
4 -41 25 -17 15 19 9 56 -12 69 -27 18 -88 -8 -158 -68 -98 -84 -352 -205
-430 -205 -28 0 -30 3 -30 37 0 20 9 55 20 78 21 43 96 123 106 113 12 -13 -7
-46 -51 -89 -46 -45 -54 -59 -32 -59 36 1 121 112 115 152 -5 39 -39 33 -114
-23 -181 -134 -414 -246 -414 -199 0 21 43 139 111 302 38 92 69 172 69 177 0
35 -25 -6 -83 -134z m1633 -143 c0 -15 -97 -146 -134 -181 -47 -45 -47 -22 0
49 54 83 134 162 134 132z m-830 -176 c0 -17 -60 -39 -92 -34 -20 3 -18 6 17
25 47 26 75 29 75 9z m695 -163 c-4 -10 -14 -37 -22 -60 -19 -55 -28 -60 -49
-28 -17 26 -16 27 22 66 40 41 61 50 49 22z"/>
</g>
</svg>
